<mxfile host="65bd71144e" pages="7">
    <diagram id="iwm9PMEZAs7S8h5tmH5j" name="Total Node">
        <mxGraphModel dx="1025" dy="789" grid="1" gridSize="10" guides="1" tooltips="1" connect="1" arrows="1" fold="1" page="1" pageScale="1" pageWidth="1169" pageHeight="827" math="0" shadow="0">
            <root>
                <mxCell id="0"/>
                <mxCell id="1" parent="0"/>
                <mxCell id="1-Gusywoz3mwxO4oDiyj-1" value="" style="rounded=0;whiteSpace=wrap;html=1;strokeColor=#666666;fontColor=#333333;fillColor=#f5f5f5;" parent="1" vertex="1">
                    <mxGeometry x="72.87" y="200" width="995.4" height="573" as="geometry"/>
                </mxCell>
                <mxCell id="1-Gusywoz3mwxO4oDiyj-2" value="Door Control" style="rounded=0;whiteSpace=wrap;html=1;" parent="1" vertex="1">
                    <mxGeometry x="515.2666666666667" y="505.3076923076923" width="147.46666666666667" height="36.92307692307693" as="geometry"/>
                </mxCell>
                <mxCell id="1-Gusywoz3mwxO4oDiyj-3" value="Rack Control" style="rounded=0;whiteSpace=wrap;html=1;" parent="1" vertex="1">
                    <mxGeometry x="330.93333333333334" y="505.3076923076923" width="147.46666666666667" height="36.92307692307693" as="geometry"/>
                </mxCell>
                <mxCell id="1-Gusywoz3mwxO4oDiyj-4" value="Lift Control" style="rounded=0;whiteSpace=wrap;html=1;" parent="1" vertex="1">
                    <mxGeometry x="146.6" y="505.3076923076923" width="147.46666666666667" height="36.92307692307693" as="geometry"/>
                </mxCell>
                <mxCell id="1-Gusywoz3mwxO4oDiyj-5" value="Handler Control" style="rounded=0;whiteSpace=wrap;html=1;" parent="1" vertex="1">
                    <mxGeometry x="699.6" y="505.3076923076923" width="147.46666666666667" height="36.92307692307693" as="geometry"/>
                </mxCell>
                <mxCell id="1-Gusywoz3mwxO4oDiyj-6" value="Wago" style="rounded=0;whiteSpace=wrap;html=1;" parent="1" vertex="1">
                    <mxGeometry x="883.9333333333333" y="505.3076923076923" width="147.46666666666667" height="36.92307692307693" as="geometry"/>
                </mxCell>
                <mxCell id="1-Gusywoz3mwxO4oDiyj-7" value="Smart Cargo" style="rounded=0;whiteSpace=wrap;html=1;fillColor=#e1d5e7;strokeColor=#9673a6;" parent="1" vertex="1">
                    <mxGeometry x="146.6" y="246.84615384615387" width="884.8" height="92.3076923076923" as="geometry"/>
                </mxCell>
                <mxCell id="1-Gusywoz3mwxO4oDiyj-8" value="/smart_cargo/control_door" style="ellipse;whiteSpace=wrap;html=1;fillColor=#fff2cc;strokeColor=#d6b656;" parent="1" vertex="1">
                    <mxGeometry x="294.06666666666666" y="62.23076923076923" width="184.33333333333331" height="36.92307692307693" as="geometry"/>
                </mxCell>
                <mxCell id="1-Gusywoz3mwxO4oDiyj-9" value="/smart_cargo/control_handler" style="ellipse;whiteSpace=wrap;html=1;fillColor=#fff2cc;strokeColor=#d6b656;" parent="1" vertex="1">
                    <mxGeometry x="515.2666666666667" y="62.23076923076923" width="184.33333333333331" height="36.92307692307693" as="geometry"/>
                </mxCell>
                <mxCell id="1-Gusywoz3mwxO4oDiyj-10" value="/smart_cargo/IF_locker" style="ellipse;whiteSpace=wrap;html=1;fillColor=#fff2cc;strokeColor=#d6b656;" parent="1" vertex="1">
                    <mxGeometry x="957.6666666666666" y="62.23076923076923" width="184.33333333333331" height="36.92307692307693" as="geometry"/>
                </mxCell>
                <mxCell id="1-Gusywoz3mwxO4oDiyj-11" value="/smart_cargo/IF_docking" style="ellipse;whiteSpace=wrap;html=1;fillColor=#fff2cc;strokeColor=#d6b656;" parent="1" vertex="1">
                    <mxGeometry x="736.4666666666667" y="62.23076923076923" width="184.33333333333331" height="36.92307692307693" as="geometry"/>
                </mxCell>
                <mxCell id="1-Gusywoz3mwxO4oDiyj-12" value="" style="endArrow=classic;html=1;rounded=0;exitX=0.5;exitY=1;exitDx=0;exitDy=0;entryX=0.27;entryY=-0.02;entryDx=0;entryDy=0;entryPerimeter=0;" parent="1" source="1-Gusywoz3mwxO4oDiyj-8" target="1-Gusywoz3mwxO4oDiyj-7" edge="1">
                    <mxGeometry width="50" height="50" relative="1" as="geometry">
                        <mxPoint x="312.5" y="-11.615384615384613" as="sourcePoint"/>
                        <mxPoint x="386" y="240" as="targetPoint"/>
                    </mxGeometry>
                </mxCell>
                <mxCell id="1-Gusywoz3mwxO4oDiyj-13" value="" style="endArrow=classic;html=1;rounded=0;exitX=0.5;exitY=1;exitDx=0;exitDy=0;jumpStyle=arc;" parent="1" source="1-Gusywoz3mwxO4oDiyj-10" edge="1">
                    <mxGeometry width="50" height="50" relative="1" as="geometry">
                        <mxPoint x="976.1" y="-11.615384615384613" as="sourcePoint"/>
                        <mxPoint x="996" y="246" as="targetPoint"/>
                    </mxGeometry>
                </mxCell>
                <mxCell id="1-Gusywoz3mwxO4oDiyj-14" value="" style="endArrow=classic;html=1;rounded=0;exitX=0.5;exitY=1;exitDx=0;exitDy=0;entryX=0.771;entryY=0.034;entryDx=0;entryDy=0;entryPerimeter=0;" parent="1" source="1-Gusywoz3mwxO4oDiyj-11" target="1-Gusywoz3mwxO4oDiyj-7" edge="1">
                    <mxGeometry width="50" height="50" relative="1" as="geometry">
                        <mxPoint x="754.9" y="-11.615384615384613" as="sourcePoint"/>
                        <mxPoint x="829" y="240" as="targetPoint"/>
                    </mxGeometry>
                </mxCell>
                <mxCell id="1-Gusywoz3mwxO4oDiyj-15" value="" style="endArrow=classic;html=1;rounded=0;exitX=0.5;exitY=1;exitDx=0;exitDy=0;entryX=0.521;entryY=0.034;entryDx=0;entryDy=0;entryPerimeter=0;" parent="1" source="1-Gusywoz3mwxO4oDiyj-9" target="1-Gusywoz3mwxO4oDiyj-7" edge="1">
                    <mxGeometry width="50" height="50" relative="1" as="geometry">
                        <mxPoint x="533.7" y="-11.615384615384613" as="sourcePoint"/>
                        <mxPoint x="644.3" y="246.84615384615387" as="targetPoint"/>
                    </mxGeometry>
                </mxCell>
                <mxCell id="1-Gusywoz3mwxO4oDiyj-16" value="/smart_cargo/IF_WCS" style="ellipse;shape=cloud;whiteSpace=wrap;html=1;fillColor=#f8cecc;strokeColor=#b85450;" parent="1" vertex="1">
                    <mxGeometry x="45.21666666666667" y="53" width="211.98333333333332" height="36.92307692307693" as="geometry"/>
                </mxCell>
                <mxCell id="1-Gusywoz3mwxO4oDiyj-17" value="/smart_cargo/state_monitor" style="ellipse;shape=cloud;whiteSpace=wrap;html=1;fillColor=#f8cecc;strokeColor=#b85450;" parent="1" vertex="1">
                    <mxGeometry x="45.21666666666667" y="136.0769230769231" width="211.98333333333332" height="36.92307692307693" as="geometry"/>
                </mxCell>
                <mxCell id="1-Gusywoz3mwxO4oDiyj-18" value="" style="endArrow=classic;html=1;rounded=0;entryX=1;entryY=0.5;entryDx=0;entryDy=0;dashed=1;exitX=0.5;exitY=1;exitDx=0;exitDy=0;strokeColor=#FF0000;" parent="1" source="1-Gusywoz3mwxO4oDiyj-6" target="1-Gusywoz3mwxO4oDiyj-31" edge="1">
                    <mxGeometry width="50" height="50" relative="1" as="geometry">
                        <mxPoint x="1114.35" y="856.0769230769231" as="sourcePoint"/>
                        <mxPoint x="1160.4333333333334" y="809.923076923077" as="targetPoint"/>
                        <Array as="points">
                            <mxPoint x="957.6666666666666" y="708.3846153846155"/>
                        </Array>
                    </mxGeometry>
                </mxCell>
                <mxCell id="1-Gusywoz3mwxO4oDiyj-19" value="" style="endArrow=classic;html=1;rounded=0;dashed=1;strokeColor=#FF0000;exitX=0.166;exitY=-0.008;exitDx=0;exitDy=0;exitPerimeter=0;entryX=0.96;entryY=0.7;entryDx=0;entryDy=0;entryPerimeter=0;" parent="1" source="1-Gusywoz3mwxO4oDiyj-7" target="1-Gusywoz3mwxO4oDiyj-16" edge="1">
                    <mxGeometry width="50" height="50" relative="1" as="geometry">
                        <mxPoint x="294.07166666666666" y="219.14923076923077" as="sourcePoint"/>
                        <mxPoint x="245.02999999999997" y="77.38" as="targetPoint"/>
                    </mxGeometry>
                </mxCell>
                <mxCell id="1-Gusywoz3mwxO4oDiyj-20" value="" style="endArrow=none;html=1;rounded=0;exitX=0.526;exitY=0.139;exitDx=0;exitDy=0;exitPerimeter=0;dashed=1;endFill=0;startArrow=block;startFill=1;strokeColor=#FF0000;entryX=0.5;entryY=1;entryDx=0;entryDy=0;" parent="1" source="1-Gusywoz3mwxO4oDiyj-35" target="1-Gusywoz3mwxO4oDiyj-7" edge="1">
                    <mxGeometry width="50" height="50" relative="1" as="geometry">
                        <mxPoint x="542.9166666666666" y="182.23076923076923" as="sourcePoint"/>
                        <mxPoint x="589" y="219.15384615384616" as="targetPoint"/>
                    </mxGeometry>
                </mxCell>
                <mxCell id="1-Gusywoz3mwxO4oDiyj-21" value="" style="endArrow=classic;html=1;rounded=0;entryX=0.5;entryY=0;entryDx=0;entryDy=0;exitX=0.31;exitY=0.8;exitDx=0;exitDy=0;exitPerimeter=0;" parent="1" source="1-Gusywoz3mwxO4oDiyj-35" target="1-Gusywoz3mwxO4oDiyj-4" edge="1">
                    <mxGeometry width="50" height="50" relative="1" as="geometry">
                        <mxPoint x="589" y="394.53846153846155" as="sourcePoint"/>
                        <mxPoint x="635.0833333333333" y="348.3846153846154" as="targetPoint"/>
                        <Array as="points">
                            <mxPoint x="220.33333333333331" y="468.3846153846154"/>
                        </Array>
                    </mxGeometry>
                </mxCell>
                <mxCell id="1-Gusywoz3mwxO4oDiyj-22" value="" style="endArrow=classic;html=1;rounded=0;entryX=0.5;entryY=0;entryDx=0;entryDy=0;exitX=0.503;exitY=0.938;exitDx=0;exitDy=0;exitPerimeter=0;" parent="1" source="1-Gusywoz3mwxO4oDiyj-35" target="1-Gusywoz3mwxO4oDiyj-3" edge="1">
                    <mxGeometry width="50" height="50" relative="1" as="geometry">
                        <mxPoint x="590.8433333333334" y="394.53846153846155" as="sourcePoint"/>
                        <mxPoint x="636.9266666666666" y="348.3846153846154" as="targetPoint"/>
                        <Array as="points">
                            <mxPoint x="404.66666666666663" y="468.3846153846154"/>
                        </Array>
                    </mxGeometry>
                </mxCell>
                <mxCell id="1-Gusywoz3mwxO4oDiyj-23" value="" style="endArrow=classic;html=1;rounded=0;entryX=0.5;entryY=0;entryDx=0;entryDy=0;startArrow=none;exitX=0.525;exitY=0.984;exitDx=0;exitDy=0;exitPerimeter=0;" parent="1" source="1-Gusywoz3mwxO4oDiyj-35" target="1-Gusywoz3mwxO4oDiyj-2" edge="1">
                    <mxGeometry width="50" height="50" relative="1" as="geometry">
                        <mxPoint x="590.8433333333334" y="394.53846153846155" as="sourcePoint"/>
                        <mxPoint x="636.9266666666666" y="348.3846153846154" as="targetPoint"/>
                    </mxGeometry>
                </mxCell>
                <mxCell id="1-Gusywoz3mwxO4oDiyj-24" value="" style="endArrow=classic;html=1;rounded=0;entryX=0.5;entryY=0;entryDx=0;entryDy=0;startArrow=none;exitX=0.55;exitY=0.95;exitDx=0;exitDy=0;exitPerimeter=0;" parent="1" source="1-Gusywoz3mwxO4oDiyj-35" target="1-Gusywoz3mwxO4oDiyj-5" edge="1">
                    <mxGeometry width="50" height="50" relative="1" as="geometry">
                        <mxPoint x="590.8433333333334" y="394.53846153846155" as="sourcePoint"/>
                        <mxPoint x="636.9266666666666" y="348.3846153846154" as="targetPoint"/>
                        <Array as="points">
                            <mxPoint x="773.3333333333333" y="468.3846153846154"/>
                        </Array>
                    </mxGeometry>
                </mxCell>
                <mxCell id="1-Gusywoz3mwxO4oDiyj-25" value="" style="endArrow=classic;html=1;rounded=0;entryX=0.5;entryY=0;entryDx=0;entryDy=0;exitX=0.8;exitY=0.8;exitDx=0;exitDy=0;exitPerimeter=0;" parent="1" source="1-Gusywoz3mwxO4oDiyj-35" target="1-Gusywoz3mwxO4oDiyj-6" edge="1">
                    <mxGeometry width="50" height="50" relative="1" as="geometry">
                        <mxPoint x="589" y="394.53846153846155" as="sourcePoint"/>
                        <mxPoint x="635.0833333333333" y="348.3846153846154" as="targetPoint"/>
                        <Array as="points">
                            <mxPoint x="957.6666666666666" y="468.3846153846154"/>
                        </Array>
                    </mxGeometry>
                </mxCell>
                <mxCell id="1-Gusywoz3mwxO4oDiyj-26" value="" style="endArrow=classic;html=1;rounded=0;entryX=0.5;entryY=1;entryDx=0;entryDy=0;exitX=0.5;exitY=0;exitDx=0;exitDy=0;" parent="1" source="1-Gusywoz3mwxO4oDiyj-31" target="1-Gusywoz3mwxO4oDiyj-4" edge="1">
                    <mxGeometry width="50" height="50" relative="1" as="geometry">
                        <mxPoint x="589" y="763.7692307692308" as="sourcePoint"/>
                        <mxPoint x="635.0833333333333" y="717.6153846153846" as="targetPoint"/>
                        <Array as="points">
                            <mxPoint x="220.33333333333331" y="653"/>
                        </Array>
                    </mxGeometry>
                </mxCell>
                <mxCell id="1-Gusywoz3mwxO4oDiyj-27" value="" style="endArrow=classic;html=1;rounded=0;entryX=0.5;entryY=1;entryDx=0;entryDy=0;exitX=0.5;exitY=0;exitDx=0;exitDy=0;" parent="1" source="1-Gusywoz3mwxO4oDiyj-31" target="1-Gusywoz3mwxO4oDiyj-3" edge="1">
                    <mxGeometry width="50" height="50" relative="1" as="geometry">
                        <mxPoint x="589" y="763.7692307692308" as="sourcePoint"/>
                        <mxPoint x="635.0833333333333" y="717.6153846153846" as="targetPoint"/>
                        <Array as="points">
                            <mxPoint x="404.66666666666663" y="653"/>
                        </Array>
                    </mxGeometry>
                </mxCell>
                <mxCell id="1-Gusywoz3mwxO4oDiyj-28" value="" style="endArrow=classic;html=1;rounded=0;entryX=0.5;entryY=1;entryDx=0;entryDy=0;startArrow=none;" parent="1" source="1-Gusywoz3mwxO4oDiyj-31" target="1-Gusywoz3mwxO4oDiyj-2" edge="1">
                    <mxGeometry width="50" height="50" relative="1" as="geometry">
                        <mxPoint x="590.8433333333334" y="763.7692307692308" as="sourcePoint"/>
                        <mxPoint x="636.9266666666666" y="717.6153846153846" as="targetPoint"/>
                    </mxGeometry>
                </mxCell>
                <mxCell id="1-Gusywoz3mwxO4oDiyj-29" value="" style="endArrow=classic;html=1;rounded=0;entryX=0.5;entryY=1;entryDx=0;entryDy=0;exitX=0.5;exitY=0;exitDx=0;exitDy=0;" parent="1" source="1-Gusywoz3mwxO4oDiyj-31" target="1-Gusywoz3mwxO4oDiyj-5" edge="1">
                    <mxGeometry width="50" height="50" relative="1" as="geometry">
                        <mxPoint x="590.8433333333334" y="763.7692307692308" as="sourcePoint"/>
                        <mxPoint x="636.9266666666666" y="717.6153846153846" as="targetPoint"/>
                        <Array as="points">
                            <mxPoint x="773.3333333333333" y="653"/>
                        </Array>
                    </mxGeometry>
                </mxCell>
                <mxCell id="1-Gusywoz3mwxO4oDiyj-30" value="" style="endArrow=none;html=1;rounded=0;entryX=0.5;entryY=1;entryDx=0;entryDy=0;exitX=0.5;exitY=0;exitDx=0;exitDy=0;" parent="1" source="1-Gusywoz3mwxO4oDiyj-31" target="1-Gusywoz3mwxO4oDiyj-31" edge="1">
                    <mxGeometry width="50" height="50" relative="1" as="geometry">
                        <mxPoint x="590.8433333333334" y="763.7692307692308" as="sourcePoint"/>
                        <mxPoint x="589" y="542.2307692307693" as="targetPoint"/>
                    </mxGeometry>
                </mxCell>
                <mxCell id="1-Gusywoz3mwxO4oDiyj-31" value="/smart_cargo/sensor_signal" style="ellipse;whiteSpace=wrap;html=1;fillColor=#dae8fc;strokeColor=#6c8ebf;" parent="1" vertex="1">
                    <mxGeometry x="496.8333333333333" y="689.9230769230769" width="184.33333333333331" height="36.92307692307693" as="geometry"/>
                </mxCell>
                <mxCell id="1-Gusywoz3mwxO4oDiyj-32" value="&lt;font color=&quot;#ff0000&quot;&gt;Pub&lt;/font&gt;" style="text;html=1;strokeColor=none;fillColor=none;align=center;verticalAlign=middle;whiteSpace=wrap;rounded=0;" parent="1" vertex="1">
                    <mxGeometry x="175.9" y="219.15384615384616" width="36.86666666666667" height="18.461538461538463" as="geometry"/>
                </mxCell>
                <mxCell id="1-Gusywoz3mwxO4oDiyj-33" value="&lt;font color=&quot;#ff0000&quot;&gt;Pub&lt;/font&gt;" style="text;html=1;strokeColor=none;fillColor=none;align=center;verticalAlign=middle;whiteSpace=wrap;rounded=0;" parent="1" vertex="1">
                    <mxGeometry x="579.7833333333333" y="348.3846153846154" width="55.3" height="27.692307692307693" as="geometry"/>
                </mxCell>
                <mxCell id="1-Gusywoz3mwxO4oDiyj-34" value="&lt;font color=&quot;#ff0000&quot;&gt;Pub&lt;/font&gt;" style="text;html=1;strokeColor=none;fillColor=none;align=center;verticalAlign=middle;whiteSpace=wrap;rounded=0;" parent="1" vertex="1">
                    <mxGeometry x="920.8" y="671.4615384615385" width="36.86666666666667" height="18.461538461538463" as="geometry"/>
                </mxCell>
                <mxCell id="1-Gusywoz3mwxO4oDiyj-35" value="/smart_cargo/middle_control" style="ellipse;shape=cloud;whiteSpace=wrap;html=1;fillColor=#d5e8d4;strokeColor=#82b366;" parent="1" vertex="1">
                    <mxGeometry x="478.4" y="417.61538461538464" width="211.98333333333332" height="36.92307692307693" as="geometry"/>
                </mxCell>
                <mxCell id="1-Gusywoz3mwxO4oDiyj-36" value="&lt;font color=&quot;#000000&quot;&gt;ActionComplete&lt;/font&gt;" style="rounded=0;whiteSpace=wrap;html=1;strokeColor=#000000;fontColor=#FF0000;fillColor=#707070;" parent="1" vertex="1">
                    <mxGeometry x="146.6" y="302.23" width="173.4" height="36.92" as="geometry"/>
                </mxCell>
                <mxCell id="1-Gusywoz3mwxO4oDiyj-37" value="" style="endArrow=classic;html=1;rounded=0;dashed=1;strokeColor=#FF0000;fontColor=#000000;jumpStyle=arc;entryX=0.171;entryY=0.919;entryDx=0;entryDy=0;entryPerimeter=0;" parent="1" target="1-Gusywoz3mwxO4oDiyj-58" edge="1">
                    <mxGeometry width="50" height="50" relative="1" as="geometry">
                        <mxPoint x="367.8000000000002" y="542.2307692307693" as="sourcePoint"/>
                        <mxPoint x="-10" y="430" as="targetPoint"/>
                        <Array as="points">
                            <mxPoint x="367.8" y="579.1538461538462"/>
                            <mxPoint x="109.73333333333333" y="579.1538461538462"/>
                        </Array>
                    </mxGeometry>
                </mxCell>
                <mxCell id="1-Gusywoz3mwxO4oDiyj-38" value="" style="endArrow=none;dashed=1;html=1;rounded=0;strokeColor=#FF0000;fontColor=#000000;jumpStyle=arc;" parent="1" edge="1">
                    <mxGeometry width="50" height="50" relative="1" as="geometry">
                        <mxPoint x="367.8000000000002" y="579.1538461538462" as="sourcePoint"/>
                        <mxPoint x="552.1333333333332" y="542.2307692307693" as="targetPoint"/>
                        <Array as="points">
                            <mxPoint x="552.1333333333333" y="579.1538461538462"/>
                        </Array>
                    </mxGeometry>
                </mxCell>
                <mxCell id="1-Gusywoz3mwxO4oDiyj-39" value="" style="endArrow=none;dashed=1;html=1;rounded=0;strokeColor=#FF0000;fontColor=#000000;jumpStyle=arc;" parent="1" edge="1">
                    <mxGeometry width="50" height="50" relative="1" as="geometry">
                        <mxPoint x="736.4666666666667" y="579.1538461538462" as="sourcePoint"/>
                        <mxPoint x="920.8000000000002" y="542.2307692307693" as="targetPoint"/>
                        <Array as="points">
                            <mxPoint x="920.8" y="579.1538461538462"/>
                        </Array>
                    </mxGeometry>
                </mxCell>
                <mxCell id="1-Gusywoz3mwxO4oDiyj-40" value="" style="endArrow=none;dashed=1;html=1;rounded=0;strokeColor=#FF0000;fontColor=#000000;jumpStyle=arc;" parent="1" edge="1">
                    <mxGeometry width="50" height="50" relative="1" as="geometry">
                        <mxPoint x="552.1333333333332" y="579.1538461538462" as="sourcePoint"/>
                        <mxPoint x="736.4666666666667" y="542.2307692307693" as="targetPoint"/>
                        <Array as="points">
                            <mxPoint x="736.4666666666667" y="579.1538461538462"/>
                        </Array>
                    </mxGeometry>
                </mxCell>
                <mxCell id="1-Gusywoz3mwxO4oDiyj-41" value="SmartCargo Package" style="shape=process;whiteSpace=wrap;html=1;backgroundOutline=1;fillColor=#ffff88;strokeColor=#36393d;" parent="1" vertex="1">
                    <mxGeometry x="72.86666666666667" y="736.0769230769231" width="175.11666666666667" height="36.92307692307693" as="geometry"/>
                </mxCell>
                <mxCell id="1-Gusywoz3mwxO4oDiyj-42" value="" style="endArrow=none;dashed=1;html=1;rounded=0;strokeColor=#FF0000;fontColor=#000000;jumpStyle=arc;" parent="1" edge="1">
                    <mxGeometry width="50" height="50" relative="1" as="geometry">
                        <mxPoint x="110" y="524" as="sourcePoint"/>
                        <mxPoint x="146.5999999999999" y="523.7692307692307" as="targetPoint"/>
                    </mxGeometry>
                </mxCell>
                <mxCell id="1-Gusywoz3mwxO4oDiyj-43" value="Sub" style="text;html=1;strokeColor=none;fillColor=none;align=center;verticalAlign=middle;whiteSpace=wrap;rounded=0;fontColor=#000000;" parent="1" vertex="1">
                    <mxGeometry x="386.23333333333335" y="117.61538461538461" width="36.86666666666667" height="18.461538461538463" as="geometry"/>
                </mxCell>
                <mxCell id="1-Gusywoz3mwxO4oDiyj-44" value="Sub" style="text;html=1;strokeColor=none;fillColor=none;align=center;verticalAlign=middle;whiteSpace=wrap;rounded=0;fontColor=#000000;" parent="1" vertex="1">
                    <mxGeometry x="613.885" y="117.61538461538461" width="36.86666666666667" height="18.461538461538463" as="geometry"/>
                </mxCell>
                <mxCell id="1-Gusywoz3mwxO4oDiyj-45" value="Sub" style="text;html=1;strokeColor=none;fillColor=none;align=center;verticalAlign=middle;whiteSpace=wrap;rounded=0;fontColor=#000000;" parent="1" vertex="1">
                    <mxGeometry x="828.6333333333333" y="117.61538461538461" width="36.86666666666667" height="18.461538461538463" as="geometry"/>
                </mxCell>
                <mxCell id="1-Gusywoz3mwxO4oDiyj-46" value="Sub" style="text;html=1;strokeColor=none;fillColor=none;align=center;verticalAlign=middle;whiteSpace=wrap;rounded=0;fontColor=#000000;" parent="1" vertex="1">
                    <mxGeometry x="994.5333333333333" y="117.61538461538461" width="36.86666666666667" height="18.461538461538463" as="geometry"/>
                </mxCell>
                <mxCell id="1-Gusywoz3mwxO4oDiyj-47" value="Sub" style="text;html=1;strokeColor=none;fillColor=none;align=center;verticalAlign=middle;whiteSpace=wrap;rounded=0;fontColor=#000000;" parent="1" vertex="1">
                    <mxGeometry x="220.33333333333331" y="634.5384615384615" width="36.86666666666667" height="18.461538461538463" as="geometry"/>
                </mxCell>
                <mxCell id="1-Gusywoz3mwxO4oDiyj-48" value="Sub" style="text;html=1;strokeColor=none;fillColor=none;align=center;verticalAlign=middle;whiteSpace=wrap;rounded=0;fontColor=#000000;" parent="1" vertex="1">
                    <mxGeometry x="404.66666666666663" y="634.5384615384615" width="36.86666666666667" height="18.461538461538463" as="geometry"/>
                </mxCell>
                <mxCell id="1-Gusywoz3mwxO4oDiyj-49" value="Sub" style="text;html=1;strokeColor=none;fillColor=none;align=center;verticalAlign=middle;whiteSpace=wrap;rounded=0;fontColor=#000000;" parent="1" vertex="1">
                    <mxGeometry x="589" y="634.5384615384615" width="36.86666666666667" height="18.461538461538463" as="geometry"/>
                </mxCell>
                <mxCell id="1-Gusywoz3mwxO4oDiyj-50" value="Sub" style="text;html=1;strokeColor=none;fillColor=none;align=center;verticalAlign=middle;whiteSpace=wrap;rounded=0;fontColor=#000000;" parent="1" vertex="1">
                    <mxGeometry x="736.4666666666667" y="634.5384615384615" width="36.86666666666667" height="18.461538461538463" as="geometry"/>
                </mxCell>
                <mxCell id="1-Gusywoz3mwxO4oDiyj-51" value="Sub" style="text;html=1;strokeColor=none;fillColor=none;align=center;verticalAlign=middle;whiteSpace=wrap;rounded=0;fontColor=#000000;" parent="1" vertex="1">
                    <mxGeometry x="220.33333333333331" y="468.3846153846154" width="36.86666666666667" height="18.461538461538463" as="geometry"/>
                </mxCell>
                <mxCell id="1-Gusywoz3mwxO4oDiyj-52" value="Sub" style="text;html=1;strokeColor=none;fillColor=none;align=center;verticalAlign=middle;whiteSpace=wrap;rounded=0;fontColor=#000000;" parent="1" vertex="1">
                    <mxGeometry x="404.66666666666663" y="468.3846153846154" width="36.86666666666667" height="18.461538461538463" as="geometry"/>
                </mxCell>
                <mxCell id="1-Gusywoz3mwxO4oDiyj-53" value="Sub" style="text;html=1;strokeColor=none;fillColor=none;align=center;verticalAlign=middle;whiteSpace=wrap;rounded=0;fontColor=#000000;" parent="1" vertex="1">
                    <mxGeometry x="589" y="468.3846153846154" width="36.86666666666667" height="18.461538461538463" as="geometry"/>
                </mxCell>
                <mxCell id="1-Gusywoz3mwxO4oDiyj-54" value="Sub" style="text;html=1;strokeColor=none;fillColor=none;align=center;verticalAlign=middle;whiteSpace=wrap;rounded=0;fontColor=#000000;" parent="1" vertex="1">
                    <mxGeometry x="773.3333333333333" y="468.3846153846154" width="36.86666666666667" height="18.461538461538463" as="geometry"/>
                </mxCell>
                <mxCell id="1-Gusywoz3mwxO4oDiyj-55" value="Sub" style="text;html=1;strokeColor=none;fillColor=none;align=center;verticalAlign=middle;whiteSpace=wrap;rounded=0;fontColor=#000000;" parent="1" vertex="1">
                    <mxGeometry x="920.8" y="468.3846153846154" width="36.86666666666667" height="18.461538461538463" as="geometry"/>
                </mxCell>
                <mxCell id="1-Gusywoz3mwxO4oDiyj-56" value="&lt;font color=&quot;#ff0000&quot;&gt;Pub&lt;/font&gt;" style="text;html=1;strokeColor=none;fillColor=none;align=center;verticalAlign=middle;whiteSpace=wrap;rounded=0;" parent="1" vertex="1">
                    <mxGeometry x="287.00333333333333" y="219.15384615384616" width="36.86666666666667" height="18.461538461538463" as="geometry"/>
                </mxCell>
                <mxCell id="1-Gusywoz3mwxO4oDiyj-57" value="" style="endArrow=classic;html=1;rounded=0;dashed=1;strokeColor=#FF0000;exitX=0.111;exitY=-0.006;exitDx=0;exitDy=0;exitPerimeter=0;entryX=0.55;entryY=0.95;entryDx=0;entryDy=0;entryPerimeter=0;" parent="1" source="1-Gusywoz3mwxO4oDiyj-7" target="1-Gusywoz3mwxO4oDiyj-17" edge="1">
                    <mxGeometry width="50" height="50" relative="1" as="geometry">
                        <mxPoint x="297.02166666666653" y="-18.23076923076914" as="sourcePoint"/>
                        <mxPoint x="247.98000000000002" y="-160.00000000000009" as="targetPoint"/>
                    </mxGeometry>
                </mxCell>
                <mxCell id="1-Gusywoz3mwxO4oDiyj-58" value="/smart_cargo/action_complete" style="ellipse;shape=cloud;whiteSpace=wrap;html=1;fillColor=#d5e8d4;strokeColor=#82b366;" parent="1" vertex="1">
                    <mxGeometry x="75.01999999999998" y="394.99538461538464" width="211.98333333333332" height="36.92307692307693" as="geometry"/>
                </mxCell>
                <mxCell id="1-Gusywoz3mwxO4oDiyj-59" value="" style="endArrow=classic;html=1;rounded=0;strokeColor=#000000;fontColor=#000000;jumpStyle=arc;" parent="1" edge="1">
                    <mxGeometry width="50" height="50" relative="1" as="geometry">
                        <mxPoint x="170.32999999999993" y="398.3800000000001" as="sourcePoint"/>
                        <mxPoint x="170" y="340" as="targetPoint"/>
                    </mxGeometry>
                </mxCell>
                <mxCell id="1-Gusywoz3mwxO4oDiyj-60" value="Sub" style="text;html=1;strokeColor=none;fillColor=none;align=center;verticalAlign=middle;whiteSpace=wrap;rounded=0;fontColor=#000000;" parent="1" vertex="1">
                    <mxGeometry x="163.90333333333334" y="357.61538461538464" width="36.86666666666667" height="18.461538461538463" as="geometry"/>
                </mxCell>
            </root>
        </mxGraphModel>
    </diagram>
    <diagram id="6JQBDUsfKoXxF4kviiqC" name="Total Process">
        <mxGraphModel dx="1025" dy="789" grid="1" gridSize="10" guides="1" tooltips="1" connect="1" arrows="1" fold="1" page="1" pageScale="1" pageWidth="1169" pageHeight="827" math="0" shadow="0">
            <root>
                <mxCell id="0"/>
                <mxCell id="1" parent="0"/>
                <mxCell id="SRcj_ebOm4TjM7tdWmyX-1" value="Door Control" style="rounded=0;whiteSpace=wrap;html=1;" parent="1" vertex="1">
                    <mxGeometry x="40" y="40" width="240" height="40" as="geometry"/>
                </mxCell>
                <mxCell id="SRcj_ebOm4TjM7tdWmyX-2" value="&amp;nbsp;1. RMD Motor&lt;br&gt;&amp;nbsp;2. AGV Door Open, Close 담당&lt;br&gt;&amp;nbsp;3. CAN 통신 연결&lt;br&gt;&amp;nbsp;4. Sensor 3개 연동&lt;br&gt;&amp;nbsp; &amp;nbsp; &amp;nbsp;- Open Limit&lt;br&gt;&amp;nbsp; &amp;nbsp; &amp;nbsp;- Close Limit&lt;br&gt;&amp;nbsp; &amp;nbsp; &amp;nbsp;- Latch Lock&amp;nbsp;" style="rounded=0;whiteSpace=wrap;html=1;align=left;" parent="1" vertex="1">
                    <mxGeometry x="40" y="160" width="240" height="120" as="geometry"/>
                </mxCell>
                <mxCell id="SRcj_ebOm4TjM7tdWmyX-3" value="Rack Control" style="rounded=0;whiteSpace=wrap;html=1;" parent="1" vertex="1">
                    <mxGeometry x="40" y="360" width="240" height="40" as="geometry"/>
                </mxCell>
                <mxCell id="SRcj_ebOm4TjM7tdWmyX-4" value="Lift Control" style="rounded=0;whiteSpace=wrap;html=1;" parent="1" vertex="1">
                    <mxGeometry x="360" y="360" width="240" height="40" as="geometry"/>
                </mxCell>
                <mxCell id="SRcj_ebOm4TjM7tdWmyX-5" value="Handler Control" style="rounded=0;whiteSpace=wrap;html=1;" parent="1" vertex="1">
                    <mxGeometry x="360" y="40" width="240" height="40" as="geometry"/>
                </mxCell>
                <mxCell id="SRcj_ebOm4TjM7tdWmyX-6" value="Wago" style="rounded=0;whiteSpace=wrap;html=1;fillColor=#e1d5e7;strokeColor=#9673a6;" parent="1" vertex="1">
                    <mxGeometry x="680" y="40" width="240" height="40" as="geometry"/>
                </mxCell>
                <mxCell id="SRcj_ebOm4TjM7tdWmyX-7" value="&amp;nbsp;Node Name : door_control&lt;br&gt;&amp;nbsp;Publish&amp;nbsp; &amp;nbsp; &amp;nbsp; &amp;nbsp; : door_status&amp;nbsp;&lt;br&gt;&amp;nbsp;Subscribe&amp;nbsp; &amp;nbsp; : sensor_signal&lt;br&gt;&amp;nbsp;Subscribe&amp;nbsp; &amp;nbsp; : middleware_control" style="rounded=0;whiteSpace=wrap;html=1;align=left;spacingTop=0;" parent="1" vertex="1">
                    <mxGeometry x="40" y="80" width="240" height="80" as="geometry"/>
                </mxCell>
                <mxCell id="SRcj_ebOm4TjM7tdWmyX-8" value="&amp;nbsp;Node Name : rack_control&lt;br&gt;&amp;nbsp;Publish&amp;nbsp; &amp;nbsp; &amp;nbsp; &amp;nbsp; : rack_status&amp;nbsp;&lt;br&gt;&amp;nbsp;Subscribe&amp;nbsp; &amp;nbsp; : sensor_signal&lt;br&gt;&amp;nbsp;Subscribe&amp;nbsp; &amp;nbsp; : middleware_control" style="rounded=0;whiteSpace=wrap;html=1;align=left;spacingTop=0;" parent="1" vertex="1">
                    <mxGeometry x="40" y="400" width="240" height="80" as="geometry"/>
                </mxCell>
                <mxCell id="SRcj_ebOm4TjM7tdWmyX-9" value="&amp;nbsp;1. RMD Motor&lt;br&gt;&amp;nbsp;2. Rack Front, Back Move 담당&lt;br&gt;&amp;nbsp;3. CAN 통신 연결&lt;br&gt;&amp;nbsp;4. Sensor 2개 연동&lt;br&gt;&amp;nbsp; &amp;nbsp; &amp;nbsp;- Front Limit&lt;br&gt;&amp;nbsp; &amp;nbsp; &amp;nbsp;- Back Limit&amp;nbsp;" style="rounded=0;whiteSpace=wrap;html=1;align=left;" parent="1" vertex="1">
                    <mxGeometry x="40" y="480" width="240" height="120" as="geometry"/>
                </mxCell>
                <mxCell id="SRcj_ebOm4TjM7tdWmyX-10" value="&amp;nbsp;Node Name : lift_control&lt;br&gt;&amp;nbsp;Publish&amp;nbsp; &amp;nbsp; &amp;nbsp; &amp;nbsp; : lift_status&amp;nbsp;&lt;br&gt;&amp;nbsp;Subscribe&amp;nbsp; &amp;nbsp; : sensor_signal&lt;br&gt;&amp;nbsp;Subscribe&amp;nbsp; &amp;nbsp; : middleware_control" style="rounded=0;whiteSpace=wrap;html=1;align=left;spacingTop=0;" parent="1" vertex="1">
                    <mxGeometry x="360" y="400" width="240" height="80" as="geometry"/>
                </mxCell>
                <mxCell id="SRcj_ebOm4TjM7tdWmyX-11" value="&amp;nbsp;1. LeadShain Motor&lt;br&gt;&amp;nbsp;2. 핸들러의 Lifting 담당&lt;br&gt;&amp;nbsp;3. CAN 통신 연결&lt;br&gt;&amp;nbsp;4. Sensor 2개 연동&lt;br&gt;&amp;nbsp; &amp;nbsp; &amp;nbsp;- Front Limit&lt;br&gt;&amp;nbsp; &amp;nbsp; &amp;nbsp;- Back Limit&amp;nbsp;" style="rounded=0;whiteSpace=wrap;html=1;align=left;" parent="1" vertex="1">
                    <mxGeometry x="360" y="480" width="240" height="120" as="geometry"/>
                </mxCell>
                <mxCell id="SRcj_ebOm4TjM7tdWmyX-12" value="&amp;nbsp;Node Name : handler_control&lt;br&gt;&amp;nbsp;Publish&amp;nbsp; &amp;nbsp; &amp;nbsp; &amp;nbsp; : handler_status&amp;nbsp;&lt;br&gt;&amp;nbsp;Subscribe&amp;nbsp; &amp;nbsp; : sensor_signal&lt;br&gt;&amp;nbsp;Subscribe&amp;nbsp; &amp;nbsp; : middleware_control" style="rounded=0;whiteSpace=wrap;html=1;align=left;spacingTop=0;" parent="1" vertex="1">
                    <mxGeometry x="360" y="80" width="240" height="80" as="geometry"/>
                </mxCell>
                <mxCell id="SRcj_ebOm4TjM7tdWmyX-13" value="&amp;nbsp;1. Dynamixel Motor&lt;br&gt;&amp;nbsp;2. Handler Magnet Unit 담당&lt;br&gt;&amp;nbsp;3. 485 통신 연결&lt;br&gt;&amp;nbsp;4. Sensor 5개 연동&lt;br&gt;&amp;nbsp; &amp;nbsp; &amp;nbsp;- Magnet Limit&lt;br&gt;&amp;nbsp; &amp;nbsp; &amp;nbsp;- Back Limit&amp;nbsp;&lt;br&gt;&amp;nbsp; &amp;nbsp; &amp;nbsp;- 3개는 사용하지 않음" style="rounded=0;whiteSpace=wrap;html=1;align=left;" parent="1" vertex="1">
                    <mxGeometry x="360" y="160" width="240" height="120" as="geometry"/>
                </mxCell>
                <mxCell id="SRcj_ebOm4TjM7tdWmyX-14" value="&amp;nbsp;Node Name : fieldro_signal&lt;br&gt;&amp;nbsp;Publish&amp;nbsp; &amp;nbsp; &amp;nbsp; &amp;nbsp; : fieldro_sensor&amp;nbsp;&lt;br&gt;&amp;nbsp;Subscribe&amp;nbsp; &amp;nbsp; : middleware_control" style="rounded=0;whiteSpace=wrap;html=1;align=left;spacingTop=0;fillColor=#e1d5e7;strokeColor=#9673a6;" parent="1" vertex="1">
                    <mxGeometry x="680" y="80" width="240" height="80" as="geometry"/>
                </mxCell>
                <mxCell id="SRcj_ebOm4TjM7tdWmyX-15" value="&amp;nbsp;1. 각종 Sensor Signal In&lt;br&gt;&amp;nbsp;2. Tilt Motor Power On, Off&lt;br&gt;&amp;nbsp;3. Modbus 485" style="rounded=0;whiteSpace=wrap;html=1;align=left;fillColor=#e1d5e7;strokeColor=#9673a6;" parent="1" vertex="1">
                    <mxGeometry x="680" y="160" width="240" height="120" as="geometry"/>
                </mxCell>
            </root>
        </mxGraphModel>
    </diagram>
    <diagram id="-UFNcGU_JVUaPMm9oDS9" name="Drive-Diagram1">
        <mxGraphModel dx="1025" dy="789" grid="1" gridSize="10" guides="1" tooltips="1" connect="1" arrows="1" fold="1" page="1" pageScale="1" pageWidth="827" pageHeight="1169" math="0" shadow="0">
            <root>
                <mxCell id="0"/>
                <mxCell id="1" parent="0"/>
                <mxCell id="fG9KR6pVHXrdGBQGpczt-15" value="" style="rounded=0;whiteSpace=wrap;html=1;fontSize=12;fillColor=#ffe6cc;strokeColor=#d79b00;" parent="1" vertex="1">
                    <mxGeometry x="80" y="379" width="680" height="130" as="geometry"/>
                </mxCell>
                <mxCell id="fG9KR6pVHXrdGBQGpczt-11" value="" style="rounded=0;whiteSpace=wrap;html=1;fontSize=12;fillColor=#d5e8d4;strokeColor=#82b366;" parent="1" vertex="1">
                    <mxGeometry x="79" y="620" width="522" height="128" as="geometry"/>
                </mxCell>
                <mxCell id="QW81Et5qgKxdCsjQoYbh-1" value="SmartDriving" style="swimlane;fontStyle=1;align=center;verticalAlign=top;childLayout=stackLayout;horizontal=1;startSize=26;horizontalStack=0;resizeParent=1;resizeParentMax=0;resizeLast=0;collapsible=1;marginBottom=0;" parent="1" vertex="1">
                    <mxGeometry x="80" y="80" width="680" height="86" as="geometry">
                        <mxRectangle x="80" y="80" width="120" height="50" as="alternateBounds"/>
                    </mxGeometry>
                </mxCell>
                <mxCell id="QW81Et5qgKxdCsjQoYbh-2" value="+ field: type" style="text;strokeColor=none;fillColor=none;align=left;verticalAlign=top;spacingLeft=4;spacingRight=4;overflow=hidden;rotatable=0;points=[[0,0.5],[1,0.5]];portConstraint=eastwest;" parent="QW81Et5qgKxdCsjQoYbh-1" vertex="1">
                    <mxGeometry y="26" width="680" height="26" as="geometry"/>
                </mxCell>
                <mxCell id="QW81Et5qgKxdCsjQoYbh-3" value="" style="line;strokeWidth=1;fillColor=none;align=left;verticalAlign=middle;spacingTop=-1;spacingLeft=3;spacingRight=3;rotatable=0;labelPosition=right;points=[];portConstraint=eastwest;strokeColor=inherit;" parent="QW81Et5qgKxdCsjQoYbh-1" vertex="1">
                    <mxGeometry y="52" width="680" height="8" as="geometry"/>
                </mxCell>
                <mxCell id="QW81Et5qgKxdCsjQoYbh-4" value="+ method(type): type" style="text;strokeColor=none;fillColor=none;align=left;verticalAlign=top;spacingLeft=4;spacingRight=4;overflow=hidden;rotatable=0;points=[[0,0.5],[1,0.5]];portConstraint=eastwest;" parent="QW81Et5qgKxdCsjQoYbh-1" vertex="1">
                    <mxGeometry y="60" width="680" height="26" as="geometry"/>
                </mxCell>
                <mxCell id="QW81Et5qgKxdCsjQoYbh-27" value="MDPacket" style="swimlane;fontStyle=1;align=center;verticalAlign=top;childLayout=stackLayout;horizontal=1;startSize=26;horizontalStack=0;resizeParent=1;resizeParentMax=0;resizeLast=0;collapsible=1;marginBottom=0;" parent="1" vertex="1">
                    <mxGeometry x="620" y="399" width="120" height="86" as="geometry"/>
                </mxCell>
                <mxCell id="QW81Et5qgKxdCsjQoYbh-28" value="+ field: type" style="text;strokeColor=none;fillColor=none;align=left;verticalAlign=top;spacingLeft=4;spacingRight=4;overflow=hidden;rotatable=0;points=[[0,0.5],[1,0.5]];portConstraint=eastwest;" parent="QW81Et5qgKxdCsjQoYbh-27" vertex="1">
                    <mxGeometry y="26" width="120" height="26" as="geometry"/>
                </mxCell>
                <mxCell id="QW81Et5qgKxdCsjQoYbh-29" value="" style="line;strokeWidth=1;fillColor=none;align=left;verticalAlign=middle;spacingTop=-1;spacingLeft=3;spacingRight=3;rotatable=0;labelPosition=right;points=[];portConstraint=eastwest;strokeColor=inherit;" parent="QW81Et5qgKxdCsjQoYbh-27" vertex="1">
                    <mxGeometry y="52" width="120" height="8" as="geometry"/>
                </mxCell>
                <mxCell id="QW81Et5qgKxdCsjQoYbh-30" value="+ method(type): type" style="text;strokeColor=none;fillColor=none;align=left;verticalAlign=top;spacingLeft=4;spacingRight=4;overflow=hidden;rotatable=0;points=[[0,0.5],[1,0.5]];portConstraint=eastwest;" parent="QW81Et5qgKxdCsjQoYbh-27" vertex="1">
                    <mxGeometry y="60" width="120" height="26" as="geometry"/>
                </mxCell>
                <mxCell id="QW81Et5qgKxdCsjQoYbh-31" value="MDInitialize" style="swimlane;fontStyle=1;align=center;verticalAlign=top;childLayout=stackLayout;horizontal=1;startSize=26;horizontalStack=0;resizeParent=1;resizeParentMax=0;resizeLast=0;collapsible=1;marginBottom=0;" parent="1" vertex="1">
                    <mxGeometry x="490" y="399" width="120" height="86" as="geometry"/>
                </mxCell>
                <mxCell id="QW81Et5qgKxdCsjQoYbh-32" value="+ field: type" style="text;strokeColor=none;fillColor=none;align=left;verticalAlign=top;spacingLeft=4;spacingRight=4;overflow=hidden;rotatable=0;points=[[0,0.5],[1,0.5]];portConstraint=eastwest;" parent="QW81Et5qgKxdCsjQoYbh-31" vertex="1">
                    <mxGeometry y="26" width="120" height="26" as="geometry"/>
                </mxCell>
                <mxCell id="QW81Et5qgKxdCsjQoYbh-33" value="" style="line;strokeWidth=1;fillColor=none;align=left;verticalAlign=middle;spacingTop=-1;spacingLeft=3;spacingRight=3;rotatable=0;labelPosition=right;points=[];portConstraint=eastwest;strokeColor=inherit;" parent="QW81Et5qgKxdCsjQoYbh-31" vertex="1">
                    <mxGeometry y="52" width="120" height="8" as="geometry"/>
                </mxCell>
                <mxCell id="QW81Et5qgKxdCsjQoYbh-34" value="+ method(type): type" style="text;strokeColor=none;fillColor=none;align=left;verticalAlign=top;spacingLeft=4;spacingRight=4;overflow=hidden;rotatable=0;points=[[0,0.5],[1,0.5]];portConstraint=eastwest;" parent="QW81Et5qgKxdCsjQoYbh-31" vertex="1">
                    <mxGeometry y="60" width="120" height="26" as="geometry"/>
                </mxCell>
                <mxCell id="QW81Et5qgKxdCsjQoYbh-35" value="MDReceiveBuffer" style="swimlane;fontStyle=1;align=center;verticalAlign=top;childLayout=stackLayout;horizontal=1;startSize=26;horizontalStack=0;resizeParent=1;resizeParentMax=0;resizeLast=0;collapsible=1;marginBottom=0;" parent="1" vertex="1">
                    <mxGeometry x="310" y="401" width="170" height="86" as="geometry"/>
                </mxCell>
                <mxCell id="QW81Et5qgKxdCsjQoYbh-36" value="+ field: type" style="text;strokeColor=none;fillColor=none;align=left;verticalAlign=top;spacingLeft=4;spacingRight=4;overflow=hidden;rotatable=0;points=[[0,0.5],[1,0.5]];portConstraint=eastwest;" parent="QW81Et5qgKxdCsjQoYbh-35" vertex="1">
                    <mxGeometry y="26" width="170" height="26" as="geometry"/>
                </mxCell>
                <mxCell id="QW81Et5qgKxdCsjQoYbh-37" value="" style="line;strokeWidth=1;fillColor=none;align=left;verticalAlign=middle;spacingTop=-1;spacingLeft=3;spacingRight=3;rotatable=0;labelPosition=right;points=[];portConstraint=eastwest;strokeColor=inherit;" parent="QW81Et5qgKxdCsjQoYbh-35" vertex="1">
                    <mxGeometry y="52" width="170" height="8" as="geometry"/>
                </mxCell>
                <mxCell id="QW81Et5qgKxdCsjQoYbh-38" value="+ method(type): type" style="text;strokeColor=none;fillColor=none;align=left;verticalAlign=top;spacingLeft=4;spacingRight=4;overflow=hidden;rotatable=0;points=[[0,0.5],[1,0.5]];portConstraint=eastwest;" parent="QW81Et5qgKxdCsjQoYbh-35" vertex="1">
                    <mxGeometry y="60" width="170" height="26" as="geometry"/>
                </mxCell>
                <mxCell id="QW81Et5qgKxdCsjQoYbh-39" value="WheelEncoder" style="swimlane;fontStyle=1;align=center;verticalAlign=top;childLayout=stackLayout;horizontal=1;startSize=26;horizontalStack=0;resizeParent=1;resizeParentMax=0;resizeLast=0;collapsible=1;marginBottom=0;" parent="1" vertex="1">
                    <mxGeometry x="461" y="641" width="120" height="86" as="geometry"/>
                </mxCell>
                <mxCell id="QW81Et5qgKxdCsjQoYbh-40" value="+ field: type" style="text;strokeColor=none;fillColor=none;align=left;verticalAlign=top;spacingLeft=4;spacingRight=4;overflow=hidden;rotatable=0;points=[[0,0.5],[1,0.5]];portConstraint=eastwest;" parent="QW81Et5qgKxdCsjQoYbh-39" vertex="1">
                    <mxGeometry y="26" width="120" height="26" as="geometry"/>
                </mxCell>
                <mxCell id="QW81Et5qgKxdCsjQoYbh-41" value="" style="line;strokeWidth=1;fillColor=none;align=left;verticalAlign=middle;spacingTop=-1;spacingLeft=3;spacingRight=3;rotatable=0;labelPosition=right;points=[];portConstraint=eastwest;strokeColor=inherit;" parent="QW81Et5qgKxdCsjQoYbh-39" vertex="1">
                    <mxGeometry y="52" width="120" height="8" as="geometry"/>
                </mxCell>
                <mxCell id="QW81Et5qgKxdCsjQoYbh-42" value="+ method(type): type" style="text;strokeColor=none;fillColor=none;align=left;verticalAlign=top;spacingLeft=4;spacingRight=4;overflow=hidden;rotatable=0;points=[[0,0.5],[1,0.5]];portConstraint=eastwest;" parent="QW81Et5qgKxdCsjQoYbh-39" vertex="1">
                    <mxGeometry y="60" width="120" height="26" as="geometry"/>
                </mxCell>
                <mxCell id="QW81Et5qgKxdCsjQoYbh-43" value="ROBOT_PARAETER" style="swimlane;fontStyle=1;align=center;verticalAlign=top;childLayout=stackLayout;horizontal=1;startSize=26;horizontalStack=0;resizeParent=1;resizeParentMax=0;resizeLast=0;collapsible=1;marginBottom=0;" parent="1" vertex="1">
                    <mxGeometry x="100" y="401" width="200" height="86" as="geometry"/>
                </mxCell>
                <mxCell id="QW81Et5qgKxdCsjQoYbh-44" value="+ field: type" style="text;strokeColor=none;fillColor=none;align=left;verticalAlign=top;spacingLeft=4;spacingRight=4;overflow=hidden;rotatable=0;points=[[0,0.5],[1,0.5]];portConstraint=eastwest;" parent="QW81Et5qgKxdCsjQoYbh-43" vertex="1">
                    <mxGeometry y="26" width="200" height="26" as="geometry"/>
                </mxCell>
                <mxCell id="QW81Et5qgKxdCsjQoYbh-45" value="" style="line;strokeWidth=1;fillColor=none;align=left;verticalAlign=middle;spacingTop=-1;spacingLeft=3;spacingRight=3;rotatable=0;labelPosition=right;points=[];portConstraint=eastwest;strokeColor=inherit;" parent="QW81Et5qgKxdCsjQoYbh-43" vertex="1">
                    <mxGeometry y="52" width="200" height="8" as="geometry"/>
                </mxCell>
                <mxCell id="QW81Et5qgKxdCsjQoYbh-46" value="+ method(type): type" style="text;strokeColor=none;fillColor=none;align=left;verticalAlign=top;spacingLeft=4;spacingRight=4;overflow=hidden;rotatable=0;points=[[0,0.5],[1,0.5]];portConstraint=eastwest;" parent="QW81Et5qgKxdCsjQoYbh-43" vertex="1">
                    <mxGeometry y="60" width="200" height="26" as="geometry"/>
                </mxCell>
                <mxCell id="QW81Et5qgKxdCsjQoYbh-51" value="MD400T" style="swimlane;fontStyle=1;align=center;verticalAlign=top;childLayout=stackLayout;horizontal=1;startSize=26;horizontalStack=0;resizeParent=1;resizeParentMax=0;resizeLast=0;collapsible=1;marginBottom=0;" parent="1" vertex="1">
                    <mxGeometry x="80" y="238" width="680" height="86" as="geometry"/>
                </mxCell>
                <mxCell id="QW81Et5qgKxdCsjQoYbh-52" value="+ field: type" style="text;strokeColor=none;fillColor=none;align=left;verticalAlign=top;spacingLeft=4;spacingRight=4;overflow=hidden;rotatable=0;points=[[0,0.5],[1,0.5]];portConstraint=eastwest;" parent="QW81Et5qgKxdCsjQoYbh-51" vertex="1">
                    <mxGeometry y="26" width="680" height="26" as="geometry"/>
                </mxCell>
                <mxCell id="QW81Et5qgKxdCsjQoYbh-53" value="" style="line;strokeWidth=1;fillColor=none;align=left;verticalAlign=middle;spacingTop=-1;spacingLeft=3;spacingRight=3;rotatable=0;labelPosition=right;points=[];portConstraint=eastwest;strokeColor=inherit;" parent="QW81Et5qgKxdCsjQoYbh-51" vertex="1">
                    <mxGeometry y="52" width="680" height="8" as="geometry"/>
                </mxCell>
                <mxCell id="QW81Et5qgKxdCsjQoYbh-54" value="+ method(type): type" style="text;strokeColor=none;fillColor=none;align=left;verticalAlign=top;spacingLeft=4;spacingRight=4;overflow=hidden;rotatable=0;points=[[0,0.5],[1,0.5]];portConstraint=eastwest;" parent="QW81Et5qgKxdCsjQoYbh-51" vertex="1">
                    <mxGeometry y="60" width="680" height="26" as="geometry"/>
                </mxCell>
                <mxCell id="QW81Et5qgKxdCsjQoYbh-61" value="" style="endArrow=none;html=1;rounded=0;startSize=13;endSize=13;startArrow=diamondThin;startFill=0;entryX=0.55;entryY=-0.022;entryDx=0;entryDy=0;entryPerimeter=0;exitX=0.399;exitY=1.077;exitDx=0;exitDy=0;exitPerimeter=0;" parent="1" source="QW81Et5qgKxdCsjQoYbh-54" target="QW81Et5qgKxdCsjQoYbh-43" edge="1">
                    <mxGeometry width="50" height="50" relative="1" as="geometry">
                        <mxPoint x="410" y="-152" as="sourcePoint"/>
                        <mxPoint x="280" y="-42" as="targetPoint"/>
                    </mxGeometry>
                </mxCell>
                <mxCell id="QW81Et5qgKxdCsjQoYbh-62" value="" style="endArrow=none;html=1;rounded=0;startSize=13;endSize=13;startArrow=diamondThin;startFill=0;entryX=0.5;entryY=0;entryDx=0;entryDy=0;exitX=0.498;exitY=1.033;exitDx=0;exitDy=0;exitPerimeter=0;" parent="1" source="QW81Et5qgKxdCsjQoYbh-54" target="QW81Et5qgKxdCsjQoYbh-35" edge="1">
                    <mxGeometry width="50" height="50" relative="1" as="geometry">
                        <mxPoint x="420" y="-162" as="sourcePoint"/>
                        <mxPoint x="320" y="248" as="targetPoint"/>
                    </mxGeometry>
                </mxCell>
                <mxCell id="QW81Et5qgKxdCsjQoYbh-63" value="" style="endArrow=none;html=1;rounded=0;startSize=13;endSize=13;startArrow=diamondThin;startFill=0;exitX=0.602;exitY=1.062;exitDx=0;exitDy=0;exitPerimeter=0;entryX=0.5;entryY=0;entryDx=0;entryDy=0;" parent="1" source="QW81Et5qgKxdCsjQoYbh-54" target="QW81Et5qgKxdCsjQoYbh-31" edge="1">
                    <mxGeometry width="50" height="50" relative="1" as="geometry">
                        <mxPoint x="490" y="168" as="sourcePoint"/>
                        <mxPoint x="360" y="248" as="targetPoint"/>
                    </mxGeometry>
                </mxCell>
                <mxCell id="QW81Et5qgKxdCsjQoYbh-64" value="" style="endArrow=none;html=1;rounded=0;startSize=13;endSize=13;startArrow=diamondThin;startFill=0;entryX=0.5;entryY=0;entryDx=0;entryDy=0;exitX=0.699;exitY=1.062;exitDx=0;exitDy=0;exitPerimeter=0;" parent="1" source="QW81Et5qgKxdCsjQoYbh-54" target="QW81Et5qgKxdCsjQoYbh-27" edge="1">
                    <mxGeometry width="50" height="50" relative="1" as="geometry">
                        <mxPoint x="432" y="-156" as="sourcePoint"/>
                        <mxPoint x="420" y="248" as="targetPoint"/>
                    </mxGeometry>
                </mxCell>
                <mxCell id="QW81Et5qgKxdCsjQoYbh-70" value="" style="endArrow=diamondThin;html=1;rounded=0;startSize=13;endSize=13;endFill=0;exitX=0.5;exitY=0;exitDx=0;exitDy=0;" parent="1" source="QW81Et5qgKxdCsjQoYbh-51" edge="1">
                    <mxGeometry width="50" height="50" relative="1" as="geometry">
                        <mxPoint x="420" y="241" as="sourcePoint"/>
                        <mxPoint x="419.58000000000004" y="166" as="targetPoint"/>
                    </mxGeometry>
                </mxCell>
                <mxCell id="fG9KR6pVHXrdGBQGpczt-1" value="AgvOdometryCalculator" style="swimlane;fontStyle=1;align=center;verticalAlign=top;childLayout=stackLayout;horizontal=1;startSize=26;horizontalStack=0;resizeParent=1;resizeParentMax=0;resizeLast=0;collapsible=1;marginBottom=0;" parent="1" vertex="1">
                    <mxGeometry x="101" y="638" width="160" height="86" as="geometry"/>
                </mxCell>
                <mxCell id="fG9KR6pVHXrdGBQGpczt-2" value="+ field: type" style="text;strokeColor=none;fillColor=none;align=left;verticalAlign=top;spacingLeft=4;spacingRight=4;overflow=hidden;rotatable=0;points=[[0,0.5],[1,0.5]];portConstraint=eastwest;" parent="fG9KR6pVHXrdGBQGpczt-1" vertex="1">
                    <mxGeometry y="26" width="160" height="26" as="geometry"/>
                </mxCell>
                <mxCell id="fG9KR6pVHXrdGBQGpczt-3" value="" style="line;strokeWidth=1;fillColor=none;align=left;verticalAlign=middle;spacingTop=-1;spacingLeft=3;spacingRight=3;rotatable=0;labelPosition=right;points=[];portConstraint=eastwest;strokeColor=inherit;" parent="fG9KR6pVHXrdGBQGpczt-1" vertex="1">
                    <mxGeometry y="52" width="160" height="8" as="geometry"/>
                </mxCell>
                <mxCell id="fG9KR6pVHXrdGBQGpczt-4" value="+ method(type): type" style="text;strokeColor=none;fillColor=none;align=left;verticalAlign=top;spacingLeft=4;spacingRight=4;overflow=hidden;rotatable=0;points=[[0,0.5],[1,0.5]];portConstraint=eastwest;" parent="fG9KR6pVHXrdGBQGpczt-1" vertex="1">
                    <mxGeometry y="60" width="160" height="26" as="geometry"/>
                </mxCell>
                <mxCell id="fG9KR6pVHXrdGBQGpczt-5" value="TestDrive" style="swimlane;fontStyle=1;align=center;verticalAlign=top;childLayout=stackLayout;horizontal=1;startSize=26;horizontalStack=0;resizeParent=1;resizeParentMax=0;resizeLast=0;collapsible=1;marginBottom=0;" parent="1" vertex="1">
                    <mxGeometry x="301" y="638" width="120" height="86" as="geometry"/>
                </mxCell>
                <mxCell id="fG9KR6pVHXrdGBQGpczt-6" value="+ field: type" style="text;strokeColor=none;fillColor=none;align=left;verticalAlign=top;spacingLeft=4;spacingRight=4;overflow=hidden;rotatable=0;points=[[0,0.5],[1,0.5]];portConstraint=eastwest;" parent="fG9KR6pVHXrdGBQGpczt-5" vertex="1">
                    <mxGeometry y="26" width="120" height="26" as="geometry"/>
                </mxCell>
                <mxCell id="fG9KR6pVHXrdGBQGpczt-7" value="" style="line;strokeWidth=1;fillColor=none;align=left;verticalAlign=middle;spacingTop=-1;spacingLeft=3;spacingRight=3;rotatable=0;labelPosition=right;points=[];portConstraint=eastwest;strokeColor=inherit;" parent="fG9KR6pVHXrdGBQGpczt-5" vertex="1">
                    <mxGeometry y="52" width="120" height="8" as="geometry"/>
                </mxCell>
                <mxCell id="fG9KR6pVHXrdGBQGpczt-8" value="+ method(type): type" style="text;strokeColor=none;fillColor=none;align=left;verticalAlign=top;spacingLeft=4;spacingRight=4;overflow=hidden;rotatable=0;points=[[0,0.5],[1,0.5]];portConstraint=eastwest;" parent="fG9KR6pVHXrdGBQGpczt-5" vertex="1">
                    <mxGeometry y="60" width="120" height="26" as="geometry"/>
                </mxCell>
                <mxCell id="fG9KR6pVHXrdGBQGpczt-9" value="" style="endArrow=diamondThin;html=1;rounded=0;fontSize=12;endFill=0;endSize=17;exitX=0.5;exitY=0;exitDx=0;exitDy=0;entryX=0;entryY=0.5;entryDx=0;entryDy=0;" parent="1" source="fG9KR6pVHXrdGBQGpczt-1" target="QW81Et5qgKxdCsjQoYbh-52" edge="1">
                    <mxGeometry width="50" height="50" relative="1" as="geometry">
                        <mxPoint x="30" y="324" as="sourcePoint"/>
                        <mxPoint x="80" y="274" as="targetPoint"/>
                        <Array as="points">
                            <mxPoint x="181" y="599"/>
                            <mxPoint x="40" y="599"/>
                            <mxPoint x="40" y="277"/>
                        </Array>
                    </mxGeometry>
                </mxCell>
                <mxCell id="fG9KR6pVHXrdGBQGpczt-10" value="" style="endArrow=none;html=1;rounded=0;fontSize=12;endSize=17;entryX=0.5;entryY=0;entryDx=0;entryDy=0;" parent="1" target="fG9KR6pVHXrdGBQGpczt-5" edge="1">
                    <mxGeometry width="50" height="50" relative="1" as="geometry">
                        <mxPoint x="180" y="599" as="sourcePoint"/>
                        <mxPoint x="610" y="719" as="targetPoint"/>
                        <Array as="points">
                            <mxPoint x="360" y="599"/>
                        </Array>
                    </mxGeometry>
                </mxCell>
                <mxCell id="fG9KR6pVHXrdGBQGpczt-14" value="Public Class Object" style="rounded=0;whiteSpace=wrap;html=1;fontSize=12;fillColor=#d5e8d4;strokeColor=#82b366;" parent="1" vertex="1">
                    <mxGeometry x="79" y="748" width="522" height="30" as="geometry"/>
                </mxCell>
                <mxCell id="fG9KR6pVHXrdGBQGpczt-16" value="Dependent Class Object" style="rounded=0;whiteSpace=wrap;html=1;fontSize=12;fillColor=#ffe6cc;strokeColor=#d79b00;" parent="1" vertex="1">
                    <mxGeometry x="80" y="509" width="680" height="30" as="geometry"/>
                </mxCell>
                <mxCell id="eSLCm92plaTng10Ho8YB-1" value="" style="endArrow=none;html=1;rounded=0;fontSize=12;endSize=17;" parent="1" edge="1">
                    <mxGeometry width="50" height="50" relative="1" as="geometry">
                        <mxPoint x="500" y="642" as="sourcePoint"/>
                        <mxPoint x="360" y="599" as="targetPoint"/>
                        <Array as="points">
                            <mxPoint x="500" y="599"/>
                        </Array>
                    </mxGeometry>
                </mxCell>
            </root>
        </mxGraphModel>
    </diagram>
    <diagram name="Drive-Diagram2" id="IL9R00nEm_dzDDNRyUbH">
        <mxGraphModel dx="2074" dy="1197" grid="1" gridSize="10" guides="1" tooltips="1" connect="1" arrows="1" fold="1" page="1" pageScale="1" pageWidth="1169" pageHeight="1654" math="0" shadow="0">
            <root>
                <mxCell id="xi6Hxth0S6MGMdCX2Eka-0"/>
                <mxCell id="xi6Hxth0S6MGMdCX2Eka-1" parent="xi6Hxth0S6MGMdCX2Eka-0"/>
                <mxCell id="xi6Hxth0S6MGMdCX2Eka-3" value="" style="rounded=0;whiteSpace=wrap;html=1;fontSize=12;fillColor=#d5e8d4;strokeColor=#82b366;" parent="xi6Hxth0S6MGMdCX2Eka-1" vertex="1">
                    <mxGeometry x="58" y="822" width="522" height="128" as="geometry"/>
                </mxCell>
                <mxCell id="xi6Hxth0S6MGMdCX2Eka-4" value="SmartDriving" style="swimlane;fontStyle=1;align=center;verticalAlign=top;childLayout=stackLayout;horizontal=1;startSize=26;horizontalStack=0;resizeParent=1;resizeParentMax=0;resizeLast=0;collapsible=1;marginBottom=0;" parent="xi6Hxth0S6MGMdCX2Eka-1" vertex="1">
                    <mxGeometry x="80" y="80" width="680" height="86" as="geometry">
                        <mxRectangle x="80" y="80" width="120" height="50" as="alternateBounds"/>
                    </mxGeometry>
                </mxCell>
                <mxCell id="xi6Hxth0S6MGMdCX2Eka-5" value="+ field: type" style="text;strokeColor=none;fillColor=none;align=left;verticalAlign=top;spacingLeft=4;spacingRight=4;overflow=hidden;rotatable=0;points=[[0,0.5],[1,0.5]];portConstraint=eastwest;" parent="xi6Hxth0S6MGMdCX2Eka-4" vertex="1">
                    <mxGeometry y="26" width="680" height="26" as="geometry"/>
                </mxCell>
                <mxCell id="xi6Hxth0S6MGMdCX2Eka-6" value="" style="line;strokeWidth=1;fillColor=none;align=left;verticalAlign=middle;spacingTop=-1;spacingLeft=3;spacingRight=3;rotatable=0;labelPosition=right;points=[];portConstraint=eastwest;strokeColor=inherit;" parent="xi6Hxth0S6MGMdCX2Eka-4" vertex="1">
                    <mxGeometry y="52" width="680" height="8" as="geometry"/>
                </mxCell>
                <mxCell id="xi6Hxth0S6MGMdCX2Eka-7" value="+ method(type): type" style="text;strokeColor=none;fillColor=none;align=left;verticalAlign=top;spacingLeft=4;spacingRight=4;overflow=hidden;rotatable=0;points=[[0,0.5],[1,0.5]];portConstraint=eastwest;" parent="xi6Hxth0S6MGMdCX2Eka-4" vertex="1">
                    <mxGeometry y="60" width="680" height="26" as="geometry"/>
                </mxCell>
                <mxCell id="xi6Hxth0S6MGMdCX2Eka-20" value="WheelEncoder" style="swimlane;fontStyle=1;align=center;verticalAlign=top;childLayout=stackLayout;horizontal=1;startSize=26;horizontalStack=0;resizeParent=1;resizeParentMax=0;resizeLast=0;collapsible=1;marginBottom=0;" parent="xi6Hxth0S6MGMdCX2Eka-1" vertex="1">
                    <mxGeometry x="440" y="843" width="120" height="86" as="geometry"/>
                </mxCell>
                <mxCell id="xi6Hxth0S6MGMdCX2Eka-21" value="+ field: type" style="text;strokeColor=none;fillColor=none;align=left;verticalAlign=top;spacingLeft=4;spacingRight=4;overflow=hidden;rotatable=0;points=[[0,0.5],[1,0.5]];portConstraint=eastwest;" parent="xi6Hxth0S6MGMdCX2Eka-20" vertex="1">
                    <mxGeometry y="26" width="120" height="26" as="geometry"/>
                </mxCell>
                <mxCell id="xi6Hxth0S6MGMdCX2Eka-22" value="" style="line;strokeWidth=1;fillColor=none;align=left;verticalAlign=middle;spacingTop=-1;spacingLeft=3;spacingRight=3;rotatable=0;labelPosition=right;points=[];portConstraint=eastwest;strokeColor=inherit;" parent="xi6Hxth0S6MGMdCX2Eka-20" vertex="1">
                    <mxGeometry y="52" width="120" height="8" as="geometry"/>
                </mxCell>
                <mxCell id="xi6Hxth0S6MGMdCX2Eka-23" value="+ method(type): type" style="text;strokeColor=none;fillColor=none;align=left;verticalAlign=top;spacingLeft=4;spacingRight=4;overflow=hidden;rotatable=0;points=[[0,0.5],[1,0.5]];portConstraint=eastwest;" parent="xi6Hxth0S6MGMdCX2Eka-20" vertex="1">
                    <mxGeometry y="60" width="120" height="26" as="geometry"/>
                </mxCell>
                <mxCell id="xi6Hxth0S6MGMdCX2Eka-36" value="DrivingMotor" style="swimlane;fontStyle=1;align=center;verticalAlign=top;childLayout=stackLayout;horizontal=1;startSize=26;horizontalStack=0;resizeParent=1;resizeParentMax=0;resizeLast=0;collapsible=1;marginBottom=0;fillColor=#dae8fc;strokeColor=#6c8ebf;" parent="xi6Hxth0S6MGMdCX2Eka-1" vertex="1">
                    <mxGeometry x="80" y="241" width="680" height="86" as="geometry">
                        <mxRectangle x="80" y="440" width="120" height="30" as="alternateBounds"/>
                    </mxGeometry>
                </mxCell>
                <mxCell id="xi6Hxth0S6MGMdCX2Eka-37" value="+ field: type" style="text;strokeColor=none;fillColor=none;align=left;verticalAlign=top;spacingLeft=4;spacingRight=4;overflow=hidden;rotatable=0;points=[[0,0.5],[1,0.5]];portConstraint=eastwest;" parent="xi6Hxth0S6MGMdCX2Eka-36" vertex="1">
                    <mxGeometry y="26" width="680" height="26" as="geometry"/>
                </mxCell>
                <mxCell id="xi6Hxth0S6MGMdCX2Eka-38" value="" style="line;strokeWidth=1;fillColor=none;align=left;verticalAlign=middle;spacingTop=-1;spacingLeft=3;spacingRight=3;rotatable=0;labelPosition=right;points=[];portConstraint=eastwest;strokeColor=inherit;" parent="xi6Hxth0S6MGMdCX2Eka-36" vertex="1">
                    <mxGeometry y="52" width="680" height="8" as="geometry"/>
                </mxCell>
                <mxCell id="xi6Hxth0S6MGMdCX2Eka-39" value="+ method(type): type" style="text;strokeColor=none;fillColor=none;align=left;verticalAlign=top;spacingLeft=4;spacingRight=4;overflow=hidden;rotatable=0;points=[[0,0.5],[1,0.5]];portConstraint=eastwest;" parent="xi6Hxth0S6MGMdCX2Eka-36" vertex="1">
                    <mxGeometry y="60" width="680" height="26" as="geometry"/>
                </mxCell>
                <mxCell id="xi6Hxth0S6MGMdCX2Eka-40" value="" style="endArrow=block;html=1;rounded=0;startSize=13;endSize=13;exitX=0.5;exitY=0;exitDx=0;exitDy=0;endFill=0;" parent="xi6Hxth0S6MGMdCX2Eka-1" source="xi6Hxth0S6MGMdCX2Eka-28" target="xi6Hxth0S6MGMdCX2Eka-39" edge="1">
                    <mxGeometry width="50" height="50" relative="1" as="geometry">
                        <mxPoint x="370" y="366" as="sourcePoint"/>
                        <mxPoint x="420" y="530" as="targetPoint"/>
                        <Array as="points">
                            <mxPoint x="320" y="400"/>
                            <mxPoint x="420" y="400"/>
                        </Array>
                    </mxGeometry>
                </mxCell>
                <mxCell id="xi6Hxth0S6MGMdCX2Eka-41" value="" style="endArrow=diamondThin;html=1;rounded=0;startSize=13;endSize=13;endFill=0;exitX=0.5;exitY=0;exitDx=0;exitDy=0;" parent="xi6Hxth0S6MGMdCX2Eka-1" source="xi6Hxth0S6MGMdCX2Eka-36" edge="1">
                    <mxGeometry width="50" height="50" relative="1" as="geometry">
                        <mxPoint x="420" y="230" as="sourcePoint"/>
                        <mxPoint x="419.58000000000004" y="166" as="targetPoint"/>
                    </mxGeometry>
                </mxCell>
                <mxCell id="xi6Hxth0S6MGMdCX2Eka-42" value="AgvOdometryCalculator" style="swimlane;fontStyle=1;align=center;verticalAlign=top;childLayout=stackLayout;horizontal=1;startSize=26;horizontalStack=0;resizeParent=1;resizeParentMax=0;resizeLast=0;collapsible=1;marginBottom=0;" parent="xi6Hxth0S6MGMdCX2Eka-1" vertex="1">
                    <mxGeometry x="80" y="840" width="160" height="86" as="geometry"/>
                </mxCell>
                <mxCell id="xi6Hxth0S6MGMdCX2Eka-43" value="+ field: type" style="text;strokeColor=none;fillColor=none;align=left;verticalAlign=top;spacingLeft=4;spacingRight=4;overflow=hidden;rotatable=0;points=[[0,0.5],[1,0.5]];portConstraint=eastwest;" parent="xi6Hxth0S6MGMdCX2Eka-42" vertex="1">
                    <mxGeometry y="26" width="160" height="26" as="geometry"/>
                </mxCell>
                <mxCell id="xi6Hxth0S6MGMdCX2Eka-44" value="" style="line;strokeWidth=1;fillColor=none;align=left;verticalAlign=middle;spacingTop=-1;spacingLeft=3;spacingRight=3;rotatable=0;labelPosition=right;points=[];portConstraint=eastwest;strokeColor=inherit;" parent="xi6Hxth0S6MGMdCX2Eka-42" vertex="1">
                    <mxGeometry y="52" width="160" height="8" as="geometry"/>
                </mxCell>
                <mxCell id="xi6Hxth0S6MGMdCX2Eka-45" value="+ method(type): type" style="text;strokeColor=none;fillColor=none;align=left;verticalAlign=top;spacingLeft=4;spacingRight=4;overflow=hidden;rotatable=0;points=[[0,0.5],[1,0.5]];portConstraint=eastwest;" parent="xi6Hxth0S6MGMdCX2Eka-42" vertex="1">
                    <mxGeometry y="60" width="160" height="26" as="geometry"/>
                </mxCell>
                <mxCell id="xi6Hxth0S6MGMdCX2Eka-46" value="TestDrive" style="swimlane;fontStyle=1;align=center;verticalAlign=top;childLayout=stackLayout;horizontal=1;startSize=26;horizontalStack=0;resizeParent=1;resizeParentMax=0;resizeLast=0;collapsible=1;marginBottom=0;" parent="xi6Hxth0S6MGMdCX2Eka-1" vertex="1">
                    <mxGeometry x="280" y="840" width="120" height="86" as="geometry"/>
                </mxCell>
                <mxCell id="xi6Hxth0S6MGMdCX2Eka-47" value="+ field: type" style="text;strokeColor=none;fillColor=none;align=left;verticalAlign=top;spacingLeft=4;spacingRight=4;overflow=hidden;rotatable=0;points=[[0,0.5],[1,0.5]];portConstraint=eastwest;" parent="xi6Hxth0S6MGMdCX2Eka-46" vertex="1">
                    <mxGeometry y="26" width="120" height="26" as="geometry"/>
                </mxCell>
                <mxCell id="xi6Hxth0S6MGMdCX2Eka-48" value="" style="line;strokeWidth=1;fillColor=none;align=left;verticalAlign=middle;spacingTop=-1;spacingLeft=3;spacingRight=3;rotatable=0;labelPosition=right;points=[];portConstraint=eastwest;strokeColor=inherit;" parent="xi6Hxth0S6MGMdCX2Eka-46" vertex="1">
                    <mxGeometry y="52" width="120" height="8" as="geometry"/>
                </mxCell>
                <mxCell id="xi6Hxth0S6MGMdCX2Eka-49" value="+ method(type): type" style="text;strokeColor=none;fillColor=none;align=left;verticalAlign=top;spacingLeft=4;spacingRight=4;overflow=hidden;rotatable=0;points=[[0,0.5],[1,0.5]];portConstraint=eastwest;" parent="xi6Hxth0S6MGMdCX2Eka-46" vertex="1">
                    <mxGeometry y="60" width="120" height="26" as="geometry"/>
                </mxCell>
                <mxCell id="xi6Hxth0S6MGMdCX2Eka-51" value="" style="endArrow=none;html=1;rounded=0;fontSize=12;endSize=17;entryX=0.5;entryY=0;entryDx=0;entryDy=0;" parent="xi6Hxth0S6MGMdCX2Eka-1" target="xi6Hxth0S6MGMdCX2Eka-46" edge="1">
                    <mxGeometry width="50" height="50" relative="1" as="geometry">
                        <mxPoint x="160" y="800" as="sourcePoint"/>
                        <mxPoint x="610" y="920" as="targetPoint"/>
                        <Array as="points">
                            <mxPoint x="340" y="800"/>
                        </Array>
                    </mxGeometry>
                </mxCell>
                <mxCell id="xi6Hxth0S6MGMdCX2Eka-52" value="Public Class Object" style="rounded=0;whiteSpace=wrap;html=1;fontSize=12;fillColor=#d5e8d4;strokeColor=#82b366;" parent="xi6Hxth0S6MGMdCX2Eka-1" vertex="1">
                    <mxGeometry x="58" y="950" width="522" height="30" as="geometry"/>
                </mxCell>
                <mxCell id="xi6Hxth0S6MGMdCX2Eka-54" value="" style="endArrow=none;html=1;rounded=0;fontSize=12;endSize=17;" parent="xi6Hxth0S6MGMdCX2Eka-1" edge="1">
                    <mxGeometry width="50" height="50" relative="1" as="geometry">
                        <mxPoint x="500" y="843" as="sourcePoint"/>
                        <mxPoint x="340" y="800" as="targetPoint"/>
                        <Array as="points">
                            <mxPoint x="500" y="800"/>
                        </Array>
                    </mxGeometry>
                </mxCell>
                <mxCell id="0OHpkHyRQmZ0SJV6zuit-0" value="" style="group" parent="xi6Hxth0S6MGMdCX2Eka-1" vertex="1" connectable="0">
                    <mxGeometry x="80" y="439" width="480" height="301" as="geometry"/>
                </mxCell>
                <mxCell id="xi6Hxth0S6MGMdCX2Eka-2" value="" style="rounded=0;whiteSpace=wrap;html=1;fontSize=12;fillColor=#ffe6cc;strokeColor=#d79b00;" parent="0OHpkHyRQmZ0SJV6zuit-0" vertex="1">
                    <mxGeometry y="141" width="480" height="130" as="geometry"/>
                </mxCell>
                <mxCell id="xi6Hxth0S6MGMdCX2Eka-8" value="MDPacket" style="swimlane;fontStyle=1;align=center;verticalAlign=top;childLayout=stackLayout;horizontal=1;startSize=26;horizontalStack=0;resizeParent=1;resizeParentMax=0;resizeLast=0;collapsible=1;marginBottom=0;" parent="0OHpkHyRQmZ0SJV6zuit-0" vertex="1">
                    <mxGeometry x="381.1764705882353" y="161" width="84.70588235294117" height="86" as="geometry"/>
                </mxCell>
                <mxCell id="xi6Hxth0S6MGMdCX2Eka-9" value="+ field: type" style="text;strokeColor=none;fillColor=none;align=left;verticalAlign=top;spacingLeft=4;spacingRight=4;overflow=hidden;rotatable=0;points=[[0,0.5],[1,0.5]];portConstraint=eastwest;" parent="xi6Hxth0S6MGMdCX2Eka-8" vertex="1">
                    <mxGeometry y="26" width="84.70588235294117" height="26" as="geometry"/>
                </mxCell>
                <mxCell id="xi6Hxth0S6MGMdCX2Eka-10" value="" style="line;strokeWidth=1;fillColor=none;align=left;verticalAlign=middle;spacingTop=-1;spacingLeft=3;spacingRight=3;rotatable=0;labelPosition=right;points=[];portConstraint=eastwest;strokeColor=inherit;" parent="xi6Hxth0S6MGMdCX2Eka-8" vertex="1">
                    <mxGeometry y="52" width="84.70588235294117" height="8" as="geometry"/>
                </mxCell>
                <mxCell id="xi6Hxth0S6MGMdCX2Eka-11" value="+ method(type): type" style="text;strokeColor=none;fillColor=none;align=left;verticalAlign=top;spacingLeft=4;spacingRight=4;overflow=hidden;rotatable=0;points=[[0,0.5],[1,0.5]];portConstraint=eastwest;" parent="xi6Hxth0S6MGMdCX2Eka-8" vertex="1">
                    <mxGeometry y="60" width="84.70588235294117" height="26" as="geometry"/>
                </mxCell>
                <mxCell id="xi6Hxth0S6MGMdCX2Eka-12" value="MDInitialize" style="swimlane;fontStyle=1;align=center;verticalAlign=top;childLayout=stackLayout;horizontal=1;startSize=26;horizontalStack=0;resizeParent=1;resizeParentMax=0;resizeLast=0;collapsible=1;marginBottom=0;" parent="0OHpkHyRQmZ0SJV6zuit-0" vertex="1">
                    <mxGeometry x="289.4117647058823" y="161" width="84.70588235294117" height="86" as="geometry"/>
                </mxCell>
                <mxCell id="xi6Hxth0S6MGMdCX2Eka-13" value="+ field: type" style="text;strokeColor=none;fillColor=none;align=left;verticalAlign=top;spacingLeft=4;spacingRight=4;overflow=hidden;rotatable=0;points=[[0,0.5],[1,0.5]];portConstraint=eastwest;" parent="xi6Hxth0S6MGMdCX2Eka-12" vertex="1">
                    <mxGeometry y="26" width="84.70588235294117" height="26" as="geometry"/>
                </mxCell>
                <mxCell id="xi6Hxth0S6MGMdCX2Eka-14" value="" style="line;strokeWidth=1;fillColor=none;align=left;verticalAlign=middle;spacingTop=-1;spacingLeft=3;spacingRight=3;rotatable=0;labelPosition=right;points=[];portConstraint=eastwest;strokeColor=inherit;" parent="xi6Hxth0S6MGMdCX2Eka-12" vertex="1">
                    <mxGeometry y="52" width="84.70588235294117" height="8" as="geometry"/>
                </mxCell>
                <mxCell id="xi6Hxth0S6MGMdCX2Eka-15" value="+ method(type): type" style="text;strokeColor=none;fillColor=none;align=left;verticalAlign=top;spacingLeft=4;spacingRight=4;overflow=hidden;rotatable=0;points=[[0,0.5],[1,0.5]];portConstraint=eastwest;" parent="xi6Hxth0S6MGMdCX2Eka-12" vertex="1">
                    <mxGeometry y="60" width="84.70588235294117" height="26" as="geometry"/>
                </mxCell>
                <mxCell id="xi6Hxth0S6MGMdCX2Eka-16" value="MDReceiveBuffer" style="swimlane;fontStyle=1;align=center;verticalAlign=top;childLayout=stackLayout;horizontal=1;startSize=26;horizontalStack=0;resizeParent=1;resizeParentMax=0;resizeLast=0;collapsible=1;marginBottom=0;" parent="0OHpkHyRQmZ0SJV6zuit-0" vertex="1">
                    <mxGeometry x="162.35294117647058" y="163" width="120" height="86" as="geometry"/>
                </mxCell>
                <mxCell id="xi6Hxth0S6MGMdCX2Eka-17" value="+ field: type" style="text;strokeColor=none;fillColor=none;align=left;verticalAlign=top;spacingLeft=4;spacingRight=4;overflow=hidden;rotatable=0;points=[[0,0.5],[1,0.5]];portConstraint=eastwest;" parent="xi6Hxth0S6MGMdCX2Eka-16" vertex="1">
                    <mxGeometry y="26" width="120" height="26" as="geometry"/>
                </mxCell>
                <mxCell id="xi6Hxth0S6MGMdCX2Eka-18" value="" style="line;strokeWidth=1;fillColor=none;align=left;verticalAlign=middle;spacingTop=-1;spacingLeft=3;spacingRight=3;rotatable=0;labelPosition=right;points=[];portConstraint=eastwest;strokeColor=inherit;" parent="xi6Hxth0S6MGMdCX2Eka-16" vertex="1">
                    <mxGeometry y="52" width="120" height="8" as="geometry"/>
                </mxCell>
                <mxCell id="xi6Hxth0S6MGMdCX2Eka-19" value="+ method(type): type" style="text;strokeColor=none;fillColor=none;align=left;verticalAlign=top;spacingLeft=4;spacingRight=4;overflow=hidden;rotatable=0;points=[[0,0.5],[1,0.5]];portConstraint=eastwest;" parent="xi6Hxth0S6MGMdCX2Eka-16" vertex="1">
                    <mxGeometry y="60" width="120" height="26" as="geometry"/>
                </mxCell>
                <mxCell id="xi6Hxth0S6MGMdCX2Eka-24" value="ROBOT_PARAETER" style="swimlane;fontStyle=1;align=center;verticalAlign=top;childLayout=stackLayout;horizontal=1;startSize=26;horizontalStack=0;resizeParent=1;resizeParentMax=0;resizeLast=0;collapsible=1;marginBottom=0;" parent="0OHpkHyRQmZ0SJV6zuit-0" vertex="1">
                    <mxGeometry x="14.117647058823529" y="163" width="141.1764705882353" height="86" as="geometry"/>
                </mxCell>
                <mxCell id="xi6Hxth0S6MGMdCX2Eka-25" value="+ field: type" style="text;strokeColor=none;fillColor=none;align=left;verticalAlign=top;spacingLeft=4;spacingRight=4;overflow=hidden;rotatable=0;points=[[0,0.5],[1,0.5]];portConstraint=eastwest;" parent="xi6Hxth0S6MGMdCX2Eka-24" vertex="1">
                    <mxGeometry y="26" width="141.1764705882353" height="26" as="geometry"/>
                </mxCell>
                <mxCell id="xi6Hxth0S6MGMdCX2Eka-26" value="" style="line;strokeWidth=1;fillColor=none;align=left;verticalAlign=middle;spacingTop=-1;spacingLeft=3;spacingRight=3;rotatable=0;labelPosition=right;points=[];portConstraint=eastwest;strokeColor=inherit;" parent="xi6Hxth0S6MGMdCX2Eka-24" vertex="1">
                    <mxGeometry y="52" width="141.1764705882353" height="8" as="geometry"/>
                </mxCell>
                <mxCell id="xi6Hxth0S6MGMdCX2Eka-27" value="+ method(type): type" style="text;strokeColor=none;fillColor=none;align=left;verticalAlign=top;spacingLeft=4;spacingRight=4;overflow=hidden;rotatable=0;points=[[0,0.5],[1,0.5]];portConstraint=eastwest;" parent="xi6Hxth0S6MGMdCX2Eka-24" vertex="1">
                    <mxGeometry y="60" width="141.1764705882353" height="26" as="geometry"/>
                </mxCell>
                <mxCell id="xi6Hxth0S6MGMdCX2Eka-28" value="MD400T" style="swimlane;fontStyle=1;align=center;verticalAlign=top;childLayout=stackLayout;horizontal=1;startSize=26;horizontalStack=0;resizeParent=1;resizeParentMax=0;resizeLast=0;collapsible=1;marginBottom=0;" parent="0OHpkHyRQmZ0SJV6zuit-0" vertex="1">
                    <mxGeometry width="480" height="86" as="geometry"/>
                </mxCell>
                <mxCell id="xi6Hxth0S6MGMdCX2Eka-29" value="+ field: type" style="text;strokeColor=none;fillColor=none;align=left;verticalAlign=top;spacingLeft=4;spacingRight=4;overflow=hidden;rotatable=0;points=[[0,0.5],[1,0.5]];portConstraint=eastwest;" parent="xi6Hxth0S6MGMdCX2Eka-28" vertex="1">
                    <mxGeometry y="26" width="480" height="26" as="geometry"/>
                </mxCell>
                <mxCell id="xi6Hxth0S6MGMdCX2Eka-30" value="" style="line;strokeWidth=1;fillColor=none;align=left;verticalAlign=middle;spacingTop=-1;spacingLeft=3;spacingRight=3;rotatable=0;labelPosition=right;points=[];portConstraint=eastwest;strokeColor=inherit;" parent="xi6Hxth0S6MGMdCX2Eka-28" vertex="1">
                    <mxGeometry y="52" width="480" height="8" as="geometry"/>
                </mxCell>
                <mxCell id="xi6Hxth0S6MGMdCX2Eka-31" value="+ method(type): type" style="text;strokeColor=none;fillColor=none;align=left;verticalAlign=top;spacingLeft=4;spacingRight=4;overflow=hidden;rotatable=0;points=[[0,0.5],[1,0.5]];portConstraint=eastwest;" parent="xi6Hxth0S6MGMdCX2Eka-28" vertex="1">
                    <mxGeometry y="60" width="480" height="26" as="geometry"/>
                </mxCell>
                <mxCell id="xi6Hxth0S6MGMdCX2Eka-32" value="" style="endArrow=none;html=1;rounded=0;startSize=13;endSize=13;startArrow=diamondThin;startFill=0;entryX=0.55;entryY=-0.022;entryDx=0;entryDy=0;entryPerimeter=0;exitX=0.399;exitY=1.077;exitDx=0;exitDy=0;exitPerimeter=0;" parent="0OHpkHyRQmZ0SJV6zuit-0" source="xi6Hxth0S6MGMdCX2Eka-31" target="xi6Hxth0S6MGMdCX2Eka-24" edge="1">
                    <mxGeometry width="50" height="50" relative="1" as="geometry">
                        <mxPoint x="232.94117647058823" y="-390" as="sourcePoint"/>
                        <mxPoint x="141.1764705882353" y="-280" as="targetPoint"/>
                    </mxGeometry>
                </mxCell>
                <mxCell id="xi6Hxth0S6MGMdCX2Eka-33" value="" style="endArrow=none;html=1;rounded=0;startSize=13;endSize=13;startArrow=diamondThin;startFill=0;entryX=0.5;entryY=0;entryDx=0;entryDy=0;exitX=0.498;exitY=1.033;exitDx=0;exitDy=0;exitPerimeter=0;" parent="0OHpkHyRQmZ0SJV6zuit-0" source="xi6Hxth0S6MGMdCX2Eka-31" target="xi6Hxth0S6MGMdCX2Eka-16" edge="1">
                    <mxGeometry width="50" height="50" relative="1" as="geometry">
                        <mxPoint x="240" y="-400" as="sourcePoint"/>
                        <mxPoint x="169.41176470588235" y="10" as="targetPoint"/>
                    </mxGeometry>
                </mxCell>
                <mxCell id="xi6Hxth0S6MGMdCX2Eka-34" value="" style="endArrow=none;html=1;rounded=0;startSize=13;endSize=13;startArrow=diamondThin;startFill=0;exitX=0.602;exitY=1.062;exitDx=0;exitDy=0;exitPerimeter=0;entryX=0.5;entryY=0;entryDx=0;entryDy=0;" parent="0OHpkHyRQmZ0SJV6zuit-0" source="xi6Hxth0S6MGMdCX2Eka-31" target="xi6Hxth0S6MGMdCX2Eka-12" edge="1">
                    <mxGeometry width="50" height="50" relative="1" as="geometry">
                        <mxPoint x="289.4117647058823" y="-70" as="sourcePoint"/>
                        <mxPoint x="197.6470588235294" y="10" as="targetPoint"/>
                    </mxGeometry>
                </mxCell>
                <mxCell id="xi6Hxth0S6MGMdCX2Eka-35" value="" style="endArrow=none;html=1;rounded=0;startSize=13;endSize=13;startArrow=diamondThin;startFill=0;entryX=0.5;entryY=0;entryDx=0;entryDy=0;exitX=0.699;exitY=1.062;exitDx=0;exitDy=0;exitPerimeter=0;" parent="0OHpkHyRQmZ0SJV6zuit-0" source="xi6Hxth0S6MGMdCX2Eka-31" target="xi6Hxth0S6MGMdCX2Eka-8" edge="1">
                    <mxGeometry width="50" height="50" relative="1" as="geometry">
                        <mxPoint x="248.4705882352941" y="-394" as="sourcePoint"/>
                        <mxPoint x="240" y="10" as="targetPoint"/>
                    </mxGeometry>
                </mxCell>
                <mxCell id="xi6Hxth0S6MGMdCX2Eka-53" value="Dependent Class Object" style="rounded=0;whiteSpace=wrap;html=1;fontSize=12;fillColor=#ffe6cc;strokeColor=#d79b00;" parent="0OHpkHyRQmZ0SJV6zuit-0" vertex="1">
                    <mxGeometry y="271" width="480" height="30" as="geometry"/>
                </mxCell>
                <mxCell id="0OHpkHyRQmZ0SJV6zuit-2" value="" style="rounded=0;whiteSpace=wrap;html=1;fontSize=12;fillColor=#ffe6cc;strokeColor=#d79b00;" parent="xi6Hxth0S6MGMdCX2Eka-1" vertex="1">
                    <mxGeometry x="600" y="580" width="480" height="130" as="geometry"/>
                </mxCell>
                <mxCell id="0OHpkHyRQmZ0SJV6zuit-3" value="Packet" style="swimlane;fontStyle=1;align=center;verticalAlign=top;childLayout=stackLayout;horizontal=1;startSize=26;horizontalStack=0;resizeParent=1;resizeParentMax=0;resizeLast=0;collapsible=1;marginBottom=0;" parent="xi6Hxth0S6MGMdCX2Eka-1" vertex="1">
                    <mxGeometry x="920" y="600" width="145.88" height="86" as="geometry"/>
                </mxCell>
                <mxCell id="0OHpkHyRQmZ0SJV6zuit-4" value="+ field: type" style="text;strokeColor=none;fillColor=none;align=left;verticalAlign=top;spacingLeft=4;spacingRight=4;overflow=hidden;rotatable=0;points=[[0,0.5],[1,0.5]];portConstraint=eastwest;" parent="0OHpkHyRQmZ0SJV6zuit-3" vertex="1">
                    <mxGeometry y="26" width="145.88" height="26" as="geometry"/>
                </mxCell>
                <mxCell id="0OHpkHyRQmZ0SJV6zuit-5" value="" style="line;strokeWidth=1;fillColor=none;align=left;verticalAlign=middle;spacingTop=-1;spacingLeft=3;spacingRight=3;rotatable=0;labelPosition=right;points=[];portConstraint=eastwest;strokeColor=inherit;" parent="0OHpkHyRQmZ0SJV6zuit-3" vertex="1">
                    <mxGeometry y="52" width="145.88" height="8" as="geometry"/>
                </mxCell>
                <mxCell id="0OHpkHyRQmZ0SJV6zuit-6" value="+ method(type): type" style="text;strokeColor=none;fillColor=none;align=left;verticalAlign=top;spacingLeft=4;spacingRight=4;overflow=hidden;rotatable=0;points=[[0,0.5],[1,0.5]];portConstraint=eastwest;" parent="0OHpkHyRQmZ0SJV6zuit-3" vertex="1">
                    <mxGeometry y="60" width="145.88" height="26" as="geometry"/>
                </mxCell>
                <mxCell id="0OHpkHyRQmZ0SJV6zuit-11" value="ReceiveBuffer" style="swimlane;fontStyle=1;align=center;verticalAlign=top;childLayout=stackLayout;horizontal=1;startSize=26;horizontalStack=0;resizeParent=1;resizeParentMax=0;resizeLast=0;collapsible=1;marginBottom=0;" parent="xi6Hxth0S6MGMdCX2Eka-1" vertex="1">
                    <mxGeometry x="762.3529411764706" y="602" width="120" height="86" as="geometry"/>
                </mxCell>
                <mxCell id="0OHpkHyRQmZ0SJV6zuit-12" value="+ field: type" style="text;strokeColor=none;fillColor=none;align=left;verticalAlign=top;spacingLeft=4;spacingRight=4;overflow=hidden;rotatable=0;points=[[0,0.5],[1,0.5]];portConstraint=eastwest;" parent="0OHpkHyRQmZ0SJV6zuit-11" vertex="1">
                    <mxGeometry y="26" width="120" height="26" as="geometry"/>
                </mxCell>
                <mxCell id="0OHpkHyRQmZ0SJV6zuit-13" value="" style="line;strokeWidth=1;fillColor=none;align=left;verticalAlign=middle;spacingTop=-1;spacingLeft=3;spacingRight=3;rotatable=0;labelPosition=right;points=[];portConstraint=eastwest;strokeColor=inherit;" parent="0OHpkHyRQmZ0SJV6zuit-11" vertex="1">
                    <mxGeometry y="52" width="120" height="8" as="geometry"/>
                </mxCell>
                <mxCell id="0OHpkHyRQmZ0SJV6zuit-14" value="+ method(type): type" style="text;strokeColor=none;fillColor=none;align=left;verticalAlign=top;spacingLeft=4;spacingRight=4;overflow=hidden;rotatable=0;points=[[0,0.5],[1,0.5]];portConstraint=eastwest;" parent="0OHpkHyRQmZ0SJV6zuit-11" vertex="1">
                    <mxGeometry y="60" width="120" height="26" as="geometry"/>
                </mxCell>
                <mxCell id="0OHpkHyRQmZ0SJV6zuit-15" value="ROBOT_PARAETER" style="swimlane;fontStyle=1;align=center;verticalAlign=top;childLayout=stackLayout;horizontal=1;startSize=26;horizontalStack=0;resizeParent=1;resizeParentMax=0;resizeLast=0;collapsible=1;marginBottom=0;" parent="xi6Hxth0S6MGMdCX2Eka-1" vertex="1">
                    <mxGeometry x="614.1176470588235" y="602" width="141.1764705882353" height="86" as="geometry"/>
                </mxCell>
                <mxCell id="0OHpkHyRQmZ0SJV6zuit-16" value="+ field: type" style="text;strokeColor=none;fillColor=none;align=left;verticalAlign=top;spacingLeft=4;spacingRight=4;overflow=hidden;rotatable=0;points=[[0,0.5],[1,0.5]];portConstraint=eastwest;" parent="0OHpkHyRQmZ0SJV6zuit-15" vertex="1">
                    <mxGeometry y="26" width="141.1764705882353" height="26" as="geometry"/>
                </mxCell>
                <mxCell id="0OHpkHyRQmZ0SJV6zuit-17" value="" style="line;strokeWidth=1;fillColor=none;align=left;verticalAlign=middle;spacingTop=-1;spacingLeft=3;spacingRight=3;rotatable=0;labelPosition=right;points=[];portConstraint=eastwest;strokeColor=inherit;" parent="0OHpkHyRQmZ0SJV6zuit-15" vertex="1">
                    <mxGeometry y="52" width="141.1764705882353" height="8" as="geometry"/>
                </mxCell>
                <mxCell id="0OHpkHyRQmZ0SJV6zuit-18" value="+ method(type): type" style="text;strokeColor=none;fillColor=none;align=left;verticalAlign=top;spacingLeft=4;spacingRight=4;overflow=hidden;rotatable=0;points=[[0,0.5],[1,0.5]];portConstraint=eastwest;" parent="0OHpkHyRQmZ0SJV6zuit-15" vertex="1">
                    <mxGeometry y="60" width="141.1764705882353" height="26" as="geometry"/>
                </mxCell>
                <mxCell id="0OHpkHyRQmZ0SJV6zuit-19" value="LeadShain" style="swimlane;fontStyle=1;align=center;verticalAlign=top;childLayout=stackLayout;horizontal=1;startSize=26;horizontalStack=0;resizeParent=1;resizeParentMax=0;resizeLast=0;collapsible=1;marginBottom=0;" parent="xi6Hxth0S6MGMdCX2Eka-1" vertex="1">
                    <mxGeometry x="600" y="439" width="480" height="86" as="geometry"/>
                </mxCell>
                <mxCell id="0OHpkHyRQmZ0SJV6zuit-20" value="+ field: type" style="text;strokeColor=none;fillColor=none;align=left;verticalAlign=top;spacingLeft=4;spacingRight=4;overflow=hidden;rotatable=0;points=[[0,0.5],[1,0.5]];portConstraint=eastwest;" parent="0OHpkHyRQmZ0SJV6zuit-19" vertex="1">
                    <mxGeometry y="26" width="480" height="26" as="geometry"/>
                </mxCell>
                <mxCell id="0OHpkHyRQmZ0SJV6zuit-21" value="" style="line;strokeWidth=1;fillColor=none;align=left;verticalAlign=middle;spacingTop=-1;spacingLeft=3;spacingRight=3;rotatable=0;labelPosition=right;points=[];portConstraint=eastwest;strokeColor=inherit;" parent="0OHpkHyRQmZ0SJV6zuit-19" vertex="1">
                    <mxGeometry y="52" width="480" height="8" as="geometry"/>
                </mxCell>
                <mxCell id="0OHpkHyRQmZ0SJV6zuit-22" value="+ method(type): type" style="text;strokeColor=none;fillColor=none;align=left;verticalAlign=top;spacingLeft=4;spacingRight=4;overflow=hidden;rotatable=0;points=[[0,0.5],[1,0.5]];portConstraint=eastwest;" parent="0OHpkHyRQmZ0SJV6zuit-19" vertex="1">
                    <mxGeometry y="60" width="480" height="26" as="geometry"/>
                </mxCell>
                <mxCell id="0OHpkHyRQmZ0SJV6zuit-23" value="" style="endArrow=none;html=1;rounded=0;startSize=13;endSize=13;startArrow=diamondThin;startFill=0;entryX=0.55;entryY=-0.022;entryDx=0;entryDy=0;entryPerimeter=0;exitX=0.399;exitY=1.077;exitDx=0;exitDy=0;exitPerimeter=0;" parent="xi6Hxth0S6MGMdCX2Eka-1" source="0OHpkHyRQmZ0SJV6zuit-22" target="0OHpkHyRQmZ0SJV6zuit-15" edge="1">
                    <mxGeometry width="50" height="50" relative="1" as="geometry">
                        <mxPoint x="832.9411764705883" y="49" as="sourcePoint"/>
                        <mxPoint x="741.1764705882354" y="159" as="targetPoint"/>
                    </mxGeometry>
                </mxCell>
                <mxCell id="0OHpkHyRQmZ0SJV6zuit-24" value="" style="endArrow=none;html=1;rounded=0;startSize=13;endSize=13;startArrow=diamondThin;startFill=0;entryX=0.5;entryY=0;entryDx=0;entryDy=0;exitX=0.498;exitY=1.033;exitDx=0;exitDy=0;exitPerimeter=0;" parent="xi6Hxth0S6MGMdCX2Eka-1" source="0OHpkHyRQmZ0SJV6zuit-22" target="0OHpkHyRQmZ0SJV6zuit-11" edge="1">
                    <mxGeometry width="50" height="50" relative="1" as="geometry">
                        <mxPoint x="840" y="39" as="sourcePoint"/>
                        <mxPoint x="769.4117647058823" y="449" as="targetPoint"/>
                    </mxGeometry>
                </mxCell>
                <mxCell id="0OHpkHyRQmZ0SJV6zuit-26" value="" style="endArrow=none;html=1;rounded=0;startSize=13;endSize=13;startArrow=diamondThin;startFill=0;entryX=0.5;entryY=0;entryDx=0;entryDy=0;exitX=0.699;exitY=1.062;exitDx=0;exitDy=0;exitPerimeter=0;" parent="xi6Hxth0S6MGMdCX2Eka-1" source="0OHpkHyRQmZ0SJV6zuit-22" target="0OHpkHyRQmZ0SJV6zuit-3" edge="1">
                    <mxGeometry width="50" height="50" relative="1" as="geometry">
                        <mxPoint x="848.4705882352941" y="45" as="sourcePoint"/>
                        <mxPoint x="840" y="449" as="targetPoint"/>
                    </mxGeometry>
                </mxCell>
                <mxCell id="0OHpkHyRQmZ0SJV6zuit-27" value="Dependent Class Object" style="rounded=0;whiteSpace=wrap;html=1;fontSize=12;fillColor=#ffe6cc;strokeColor=#d79b00;" parent="xi6Hxth0S6MGMdCX2Eka-1" vertex="1">
                    <mxGeometry x="600" y="710" width="480" height="30" as="geometry"/>
                </mxCell>
                <mxCell id="0OHpkHyRQmZ0SJV6zuit-28" value="" style="endArrow=none;html=1;rounded=0;fontSize=12;endSize=17;entryX=0.5;entryY=0;entryDx=0;entryDy=0;" parent="xi6Hxth0S6MGMdCX2Eka-1" target="0OHpkHyRQmZ0SJV6zuit-19" edge="1">
                    <mxGeometry width="50" height="50" relative="1" as="geometry">
                        <mxPoint x="420" y="400" as="sourcePoint"/>
                        <mxPoint x="470" y="350" as="targetPoint"/>
                        <Array as="points">
                            <mxPoint x="840" y="400"/>
                        </Array>
                    </mxGeometry>
                </mxCell>
                <mxCell id="0OHpkHyRQmZ0SJV6zuit-29" value="" style="endArrow=diamondThin;html=1;rounded=0;fontSize=12;endSize=17;endFill=0;" parent="xi6Hxth0S6MGMdCX2Eka-1" edge="1">
                    <mxGeometry width="50" height="50" relative="1" as="geometry">
                        <mxPoint x="160" y="800" as="sourcePoint"/>
                        <mxPoint x="80" y="290" as="targetPoint"/>
                        <Array as="points">
                            <mxPoint x="40" y="800"/>
                            <mxPoint x="40" y="290"/>
                        </Array>
                    </mxGeometry>
                </mxCell>
            </root>
        </mxGraphModel>
    </diagram>
    <diagram id="ep_42FMVzFukuRdLoXV5" name="Drive-VelControl Sequence">
        <mxGraphModel dx="2074" dy="1197" grid="1" gridSize="10" guides="1" tooltips="1" connect="1" arrows="1" fold="1" page="1" pageScale="1" pageWidth="827" pageHeight="1169" math="0" shadow="0">
            <root>
                <mxCell id="0"/>
                <mxCell id="1" parent="0"/>
                <mxCell id="5npoyBNr_rpreDfqEMst-1" value="SmartDrive" style="shape=umlLifeline;perimeter=lifelinePerimeter;whiteSpace=wrap;html=1;container=1;collapsible=0;recursiveResize=0;outlineConnect=0;" parent="1" vertex="1">
                    <mxGeometry x="120" y="70" width="120" height="570" as="geometry"/>
                </mxCell>
                <mxCell id="5npoyBNr_rpreDfqEMst-3" value="&lt;div style=&quot;border-color: var(--border-color); font-family: Consolas, &amp;quot;Courier New&amp;quot;, monospace; line-height: 22px;&quot;&gt;&lt;font style=&quot;border-color: var(--border-color);&quot;&gt;twinny_robot/VelControl&lt;/font&gt;&lt;/div&gt;&lt;div style=&quot;border-color: var(--border-color); font-family: Consolas, &amp;quot;Courier New&amp;quot;, monospace; line-height: 22px;&quot;&gt;&lt;font style=&quot;border-color: var(--border-color);&quot;&gt;Subscribe&lt;/font&gt;&lt;/div&gt;" style="text;html=1;strokeColor=none;fillColor=none;align=center;verticalAlign=middle;whiteSpace=wrap;rounded=0;fontSize=12;" parent="1" vertex="1">
                    <mxGeometry x="60" y="90" width="70" height="80" as="geometry"/>
                </mxCell>
                <mxCell id="5npoyBNr_rpreDfqEMst-4" value="MotorDrive&lt;br&gt;(MD400T)" style="shape=umlLifeline;perimeter=lifelinePerimeter;whiteSpace=wrap;html=1;container=1;collapsible=0;recursiveResize=0;outlineConnect=0;" parent="1" vertex="1">
                    <mxGeometry x="320" y="70" width="120" height="570" as="geometry"/>
                </mxCell>
                <mxCell id="5npoyBNr_rpreDfqEMst-22" value="" style="rounded=0;whiteSpace=wrap;html=1;fontSize=10;" parent="5npoyBNr_rpreDfqEMst-4" vertex="1">
                    <mxGeometry x="55" y="150" width="10" height="130" as="geometry"/>
                </mxCell>
                <mxCell id="5npoyBNr_rpreDfqEMst-29" value="" style="html=1;points=[];perimeter=orthogonalPerimeter;fontSize=12;" parent="5npoyBNr_rpreDfqEMst-4" vertex="1">
                    <mxGeometry x="55" y="340" width="10" height="170" as="geometry"/>
                </mxCell>
                <mxCell id="5npoyBNr_rpreDfqEMst-30" value="&lt;font style=&quot;font-size: 12px;&quot;&gt;update() :&amp;nbsp;&lt;br&gt;&lt;/font&gt;&lt;div style=&quot;font-family: Consolas, &amp;quot;Courier New&amp;quot;, monospace; line-height: 22px;&quot;&gt;&lt;font style=&quot;font-size: 12px;&quot;&gt;receive_packet_processing():&lt;/font&gt;&lt;/div&gt;&lt;div style=&quot;font-family: Consolas, &amp;quot;Courier New&amp;quot;, monospace; line-height: 22px;&quot;&gt;run_packet_processing():&lt;/div&gt;&lt;div style=&quot;font-family: Consolas, &amp;quot;Courier New&amp;quot;, monospace; line-height: 22px;&quot;&gt;&lt;div style=&quot;line-height: 22px;&quot;&gt;&lt;font style=&quot;font-size: 12px;&quot;&gt;receive_pnt_main_data()&lt;/font&gt;&lt;/div&gt;&lt;/div&gt;" style="edgeStyle=orthogonalEdgeStyle;html=1;align=left;spacingLeft=2;endArrow=block;rounded=0;entryX=1;entryY=0;fontSize=12;" parent="5npoyBNr_rpreDfqEMst-4" target="5npoyBNr_rpreDfqEMst-29" edge="1">
                    <mxGeometry relative="1" as="geometry">
                        <mxPoint x="60" y="320" as="sourcePoint"/>
                        <Array as="points">
                            <mxPoint x="90" y="320"/>
                        </Array>
                    </mxGeometry>
                </mxCell>
                <mxCell id="5npoyBNr_rpreDfqEMst-32" value="" style="endArrow=classic;html=1;rounded=0;fontSize=12;" parent="5npoyBNr_rpreDfqEMst-4" target="5npoyBNr_rpreDfqEMst-12" edge="1">
                    <mxGeometry width="50" height="50" relative="1" as="geometry">
                        <mxPoint x="65" y="450" as="sourcePoint"/>
                        <mxPoint x="115" y="400" as="targetPoint"/>
                    </mxGeometry>
                </mxCell>
                <mxCell id="5npoyBNr_rpreDfqEMst-35" value="" style="html=1;verticalAlign=bottom;endArrow=open;dashed=1;endSize=8;rounded=0;fontSize=12;exitX=0.3;exitY=1;exitDx=0;exitDy=0;exitPerimeter=0;" parent="5npoyBNr_rpreDfqEMst-4" edge="1">
                    <mxGeometry relative="1" as="geometry">
                        <mxPoint x="64" y="490" as="targetPoint"/>
                        <mxPoint x="251.71000000000004" y="490" as="sourcePoint"/>
                    </mxGeometry>
                </mxCell>
                <mxCell id="5npoyBNr_rpreDfqEMst-11" value="&lt;div style=&quot;border-color: var(--border-color); font-family: Consolas, &amp;quot;Courier New&amp;quot;, monospace; line-height: 22px;&quot;&gt;move(linear, angular)&lt;/div&gt;" style="text;html=1;strokeColor=none;fillColor=none;align=center;verticalAlign=middle;whiteSpace=wrap;rounded=0;fontSize=12;" parent="1" vertex="1">
                    <mxGeometry x="240" y="190" width="150" height="30" as="geometry"/>
                </mxCell>
                <mxCell id="5npoyBNr_rpreDfqEMst-12" value="&lt;font style=&quot;font-size: 10px;&quot;&gt;AgvOdometryCalculator&lt;/font&gt;" style="shape=umlLifeline;perimeter=lifelinePerimeter;whiteSpace=wrap;html=1;container=1;collapsible=0;recursiveResize=0;outlineConnect=0;" parent="1" vertex="1">
                    <mxGeometry x="520" y="70" width="120" height="570" as="geometry"/>
                </mxCell>
                <mxCell id="5npoyBNr_rpreDfqEMst-14" value="" style="html=1;points=[];perimeter=orthogonalPerimeter;fontSize=12;" parent="5npoyBNr_rpreDfqEMst-12" vertex="1">
                    <mxGeometry x="55" y="152" width="10" height="48" as="geometry"/>
                </mxCell>
                <mxCell id="5npoyBNr_rpreDfqEMst-21" value="ctrl_velocity(left_rpm, right_rpm)" style="text;html=1;strokeColor=none;fillColor=none;align=center;verticalAlign=middle;whiteSpace=wrap;rounded=0;fontSize=10;" parent="5npoyBNr_rpreDfqEMst-12" vertex="1">
                    <mxGeometry x="-20" y="249" width="160" height="30" as="geometry"/>
                </mxCell>
                <mxCell id="5npoyBNr_rpreDfqEMst-34" value="" style="html=1;points=[];perimeter=orthogonalPerimeter;fontSize=12;" parent="5npoyBNr_rpreDfqEMst-12" vertex="1">
                    <mxGeometry x="55" y="450" width="10" height="40" as="geometry"/>
                </mxCell>
                <mxCell id="5npoyBNr_rpreDfqEMst-10" value="" style="html=1;verticalAlign=bottom;endArrow=block;rounded=0;fontSize=12;entryX=-0.038;entryY=0.075;entryDx=0;entryDy=0;entryPerimeter=0;" parent="1" target="5npoyBNr_rpreDfqEMst-22" edge="1">
                    <mxGeometry width="80" relative="1" as="geometry">
                        <mxPoint x="180" y="230" as="sourcePoint"/>
                        <mxPoint x="320" y="230" as="targetPoint"/>
                    </mxGeometry>
                </mxCell>
                <mxCell id="5npoyBNr_rpreDfqEMst-15" value="twist_to_wheel_rpm" style="html=1;verticalAlign=bottom;endArrow=block;rounded=0;fontSize=12;entryX=0.14;entryY=0.152;entryDx=0;entryDy=0;entryPerimeter=0;exitX=0.914;exitY=0.069;exitDx=0;exitDy=0;exitPerimeter=0;" parent="1" source="5npoyBNr_rpreDfqEMst-22" target="5npoyBNr_rpreDfqEMst-14" edge="1">
                    <mxGeometry relative="1" as="geometry">
                        <mxPoint x="390" y="229" as="sourcePoint"/>
                        <mxPoint x="611.8400000000001" y="227.12300000000005" as="targetPoint"/>
                    </mxGeometry>
                </mxCell>
                <mxCell id="5npoyBNr_rpreDfqEMst-16" value="" style="html=1;verticalAlign=bottom;endArrow=open;dashed=1;endSize=8;rounded=0;fontSize=12;exitX=0.3;exitY=1;exitDx=0;exitDy=0;exitPerimeter=0;entryX=1.029;entryY=0.388;entryDx=0;entryDy=0;entryPerimeter=0;" parent="1" source="5npoyBNr_rpreDfqEMst-14" target="5npoyBNr_rpreDfqEMst-22" edge="1">
                    <mxGeometry relative="1" as="geometry">
                        <mxPoint x="379.5" y="270" as="targetPoint"/>
                        <mxPoint x="659.5" y="270" as="sourcePoint"/>
                    </mxGeometry>
                </mxCell>
                <mxCell id="5npoyBNr_rpreDfqEMst-17" value="&lt;div style=&quot;border-color: var(--border-color); font-family: Consolas, &amp;quot;Courier New&amp;quot;, monospace; line-height: 22px;&quot;&gt;wheel_rpm&lt;/div&gt;" style="text;html=1;strokeColor=none;fillColor=none;align=center;verticalAlign=middle;whiteSpace=wrap;rounded=0;fontSize=12;" parent="1" vertex="1">
                    <mxGeometry x="415" y="250" width="150" height="20" as="geometry"/>
                </mxCell>
                <mxCell id="5npoyBNr_rpreDfqEMst-18" value="&lt;font style=&quot;font-size: 10px;&quot;&gt;MOTOR&lt;/font&gt;" style="shape=umlLifeline;perimeter=lifelinePerimeter;whiteSpace=wrap;html=1;container=1;collapsible=0;recursiveResize=0;outlineConnect=0;" parent="1" vertex="1">
                    <mxGeometry x="680" y="70" width="120" height="570" as="geometry"/>
                </mxCell>
                <mxCell id="5npoyBNr_rpreDfqEMst-20" value="" style="endArrow=classic;html=1;rounded=0;fontSize=10;" parent="1" target="5npoyBNr_rpreDfqEMst-18" edge="1">
                    <mxGeometry width="50" height="50" relative="1" as="geometry">
                        <mxPoint x="380" y="350" as="sourcePoint"/>
                        <mxPoint x="640" y="330" as="targetPoint"/>
                    </mxGeometry>
                </mxCell>
                <mxCell id="5npoyBNr_rpreDfqEMst-25" value="callback&lt;br&gt;publish_act_velocity()" style="html=1;verticalAlign=bottom;endArrow=block;rounded=0;fontSize=12;" parent="1" target="5npoyBNr_rpreDfqEMst-1" edge="1">
                    <mxGeometry relative="1" as="geometry">
                        <mxPoint x="380" y="580" as="sourcePoint"/>
                        <mxPoint x="184.5" y="580" as="targetPoint"/>
                    </mxGeometry>
                </mxCell>
                <mxCell id="5npoyBNr_rpreDfqEMst-31" value="" style="endArrow=classic;html=1;rounded=0;fontSize=12;" parent="1" edge="1">
                    <mxGeometry width="50" height="50" relative="1" as="geometry">
                        <mxPoint x="40" y="90" as="sourcePoint"/>
                        <mxPoint x="120" y="90" as="targetPoint"/>
                    </mxGeometry>
                </mxCell>
                <mxCell id="5npoyBNr_rpreDfqEMst-33" value="encoder_delta_to_twist()" style="text;html=1;strokeColor=none;fillColor=none;align=center;verticalAlign=middle;whiteSpace=wrap;rounded=0;fontSize=12;" parent="1" vertex="1">
                    <mxGeometry x="395" y="490" width="170" height="30" as="geometry"/>
                </mxCell>
                <mxCell id="5npoyBNr_rpreDfqEMst-36" value="geometry_msgs::Twist" style="text;html=1;strokeColor=none;fillColor=none;align=center;verticalAlign=middle;whiteSpace=wrap;rounded=0;fontSize=12;" parent="1" vertex="1">
                    <mxGeometry x="395" y="530" width="170" height="30" as="geometry"/>
                </mxCell>
            </root>
        </mxGraphModel>
    </diagram>
    <diagram id="Bzg0ZTIAziz3olUS90OM" name="Drive-Class DrivingMotor">
        <mxGraphModel dx="2074" dy="1197" grid="1" gridSize="10" guides="1" tooltips="1" connect="1" arrows="1" fold="1" page="1" pageScale="1" pageWidth="1169" pageHeight="1654" math="0" shadow="0">
            <root>
                <mxCell id="0"/>
                <mxCell id="1" parent="0"/>
                <mxCell id="19elTYbLTs9gzYs2h3u9-5" value="DrivingMotor" style="swimlane;fontStyle=1;align=center;verticalAlign=top;childLayout=stackLayout;horizontal=1;startSize=30;horizontalStack=0;resizeParent=1;resizeParentMax=0;resizeLast=0;collapsible=1;marginBottom=0;fontSize=15;" parent="1" vertex="1">
                    <mxGeometry x="80" y="80" width="600" height="500" as="geometry">
                        <mxRectangle x="80" y="80" width="600" height="80" as="alternateBounds"/>
                    </mxGeometry>
                </mxCell>
                <mxCell id="19elTYbLTs9gzYs2h3u9-6" value="- _current_time : ros::Time&#10;- _publish_act_velocity_callback : std::function&lt;void(geometry_msgs::Twist)&gt;&#10;- _thread_info : ThreadActionInfo*&#10;- _comm : RS485Comm*&#10;- _odometry_calculator : AgvOdometryCalculator*&#10;- _test : TestDrive*" style="text;strokeColor=none;fillColor=none;align=left;verticalAlign=middle;spacingLeft=4;spacingRight=4;overflow=hidden;rotatable=0;points=[[0,0.5],[1,0.5]];portConstraint=eastwest;fontSize=16;" parent="19elTYbLTs9gzYs2h3u9-5" vertex="1">
                    <mxGeometry y="30" width="600" height="140" as="geometry"/>
                </mxCell>
                <mxCell id="19elTYbLTs9gzYs2h3u9-7" value="" style="line;strokeWidth=1;fillColor=none;align=left;verticalAlign=middle;spacingTop=-1;spacingLeft=3;spacingRight=3;rotatable=0;labelPosition=right;points=[];portConstraint=eastwest;strokeColor=inherit;" parent="19elTYbLTs9gzYs2h3u9-5" vertex="1">
                    <mxGeometry y="170" width="600" height="8" as="geometry"/>
                </mxCell>
                <mxCell id="19elTYbLTs9gzYs2h3u9-8" value="+ virtual move(double, double) : void&#10;+ virtual move_test(double, double, double) : void&#10;+ virtual stop() : void&#10;+ virtual break_set(bool) : void&#10;+ virtual alram_reset() : void&#10;+ virtual data_read(uint8_t) : void&#10;+ virtual status_check() : void&#10;&#10;# virtual update() : void&#10;&#10;# virtual initialize_start() : void&#10;&#10;# virtual read_serial() : void&#10;# virtual receive_packet_processing() : void&#10;# virtual init_packet_processing(uint8_t*) : void&#10;# virtual run_packet_processing(uint8_t*) : void" style="text;strokeColor=none;fillColor=none;align=left;verticalAlign=middle;spacingLeft=4;spacingRight=4;overflow=hidden;rotatable=0;points=[[0,0.5],[1,0.5]];portConstraint=eastwest;fontSize=16;fontColor=#0000FF;" parent="19elTYbLTs9gzYs2h3u9-5" vertex="1">
                    <mxGeometry y="178" width="600" height="322" as="geometry"/>
                </mxCell>
                <mxCell id="19elTYbLTs9gzYs2h3u9-9" value="" style="endArrow=block;html=1;rounded=0;exitX=0.5;exitY=0;exitDx=0;exitDy=0;endFill=0;endSize=16;" parent="1" source="19elTYbLTs9gzYs2h3u9-10" target="19elTYbLTs9gzYs2h3u9-8" edge="1">
                    <mxGeometry width="50" height="50" relative="1" as="geometry">
                        <mxPoint x="299.5" y="630" as="sourcePoint"/>
                        <mxPoint x="299.5" y="590" as="targetPoint"/>
                    </mxGeometry>
                </mxCell>
                <mxCell id="19elTYbLTs9gzYs2h3u9-10" value="MD400T" style="swimlane;fontStyle=1;align=center;verticalAlign=top;childLayout=stackLayout;horizontal=1;startSize=36;horizontalStack=0;resizeParent=1;resizeParentMax=0;resizeLast=0;collapsible=1;marginBottom=0;fontSize=16;" parent="1" vertex="1">
                    <mxGeometry x="80" y="640" width="600" height="330" as="geometry">
                        <mxRectangle x="80" y="640" width="600" height="76" as="alternateBounds"/>
                    </mxGeometry>
                </mxCell>
                <mxCell id="19elTYbLTs9gzYs2h3u9-11" value="- _wheel_encoder : WheelEncoder&#10;- _cur_wheel_rpm[2] : int16_t&#10;- _buffer : MDReceiveBuffer*&#10;- _packet : MDPacket*&#10;- _initialize : MDInitialize*&#10;- _parameter : std::shared_ptr&lt;ROBOT_PARAMETER&gt;&#10;- _action : MD400T_ACTION" style="text;strokeColor=none;fillColor=none;align=left;verticalAlign=middle;spacingLeft=4;spacingRight=4;overflow=hidden;rotatable=0;points=[[0,0.5],[1,0.5]];portConstraint=eastwest;fontSize=16;" parent="19elTYbLTs9gzYs2h3u9-10" vertex="1">
                    <mxGeometry y="36" width="600" height="154" as="geometry"/>
                </mxCell>
                <mxCell id="19elTYbLTs9gzYs2h3u9-12" value="" style="line;strokeWidth=1;fillColor=none;align=left;verticalAlign=middle;spacingTop=-1;spacingLeft=3;spacingRight=3;rotatable=0;labelPosition=right;points=[];portConstraint=eastwest;strokeColor=inherit;" parent="19elTYbLTs9gzYs2h3u9-10" vertex="1">
                    <mxGeometry y="190" width="600" height="8" as="geometry"/>
                </mxCell>
                <mxCell id="19elTYbLTs9gzYs2h3u9-13" value="- send_packet(uint8_t, uint8_t*, uint8_t) : void&#10;- query_pid_data(uint8_t) : void&#10;- ctrl_velocity(int16_t, int16_t) : void&#10;- receive_status_data(uint8_t*) : void&#10;- receive_pnt_main_data(uint8_t*) : void" style="text;strokeColor=none;fillColor=none;align=left;verticalAlign=middle;spacingLeft=4;spacingRight=4;overflow=hidden;rotatable=0;points=[[0,0.5],[1,0.5]];portConstraint=eastwest;fontSize=16;" parent="19elTYbLTs9gzYs2h3u9-10" vertex="1">
                    <mxGeometry y="198" width="600" height="132" as="geometry"/>
                </mxCell>
            </root>
        </mxGraphModel>
    </diagram>
    <diagram id="ZNVEUnflZ7xi6-YBYe9U" name="Drive-TestDrive Flow">
        <mxGraphModel dx="2074" dy="1197" grid="1" gridSize="10" guides="1" tooltips="1" connect="1" arrows="1" fold="1" page="1" pageScale="1" pageWidth="827" pageHeight="1169" math="0" shadow="0">
            <root>
                <mxCell id="0"/>
                <mxCell id="1" parent="0"/>
                <mxCell id="lNs4vDDPZcrE2mScRQ-m-1" value="SmartDrive" style="shape=umlLifeline;perimeter=lifelinePerimeter;whiteSpace=wrap;html=1;container=1;collapsible=0;recursiveResize=0;outlineConnect=0;" parent="1" vertex="1">
                    <mxGeometry x="120" y="70" width="120" height="450" as="geometry"/>
                </mxCell>
                <mxCell id="lNs4vDDPZcrE2mScRQ-m-2" value="&lt;div style=&quot;border-color: var(--border-color); font-family: Consolas, &amp;quot;Courier New&amp;quot;, monospace; line-height: 22px;&quot;&gt;move_test cmd&lt;/div&gt;" style="text;html=1;strokeColor=none;fillColor=none;align=center;verticalAlign=middle;whiteSpace=wrap;rounded=0;fontSize=12;" parent="1" vertex="1">
                    <mxGeometry x="60" y="90" width="70" height="80" as="geometry"/>
                </mxCell>
                <mxCell id="lNs4vDDPZcrE2mScRQ-m-3" value="MotorDrive&lt;br&gt;(MD400T)" style="shape=umlLifeline;perimeter=lifelinePerimeter;whiteSpace=wrap;html=1;container=1;collapsible=0;recursiveResize=0;outlineConnect=0;" parent="1" vertex="1">
                    <mxGeometry x="320" y="70" width="120" height="450" as="geometry"/>
                </mxCell>
                <mxCell id="lNs4vDDPZcrE2mScRQ-m-4" value="" style="rounded=0;whiteSpace=wrap;html=1;fontSize=10;" parent="lNs4vDDPZcrE2mScRQ-m-3" vertex="1">
                    <mxGeometry x="55" y="150" width="10" height="260" as="geometry"/>
                </mxCell>
                <mxCell id="lNs4vDDPZcrE2mScRQ-m-9" value="&lt;div style=&quot;border-color: var(--border-color); font-family: Consolas, &amp;quot;Courier New&amp;quot;, monospace; line-height: 22px;&quot;&gt;move_test(time, linear, angular)&lt;/div&gt;" style="text;html=1;strokeColor=none;fillColor=none;align=center;verticalAlign=middle;whiteSpace=wrap;rounded=0;fontSize=12;" parent="1" vertex="1">
                    <mxGeometry x="180" y="190" width="220" height="30" as="geometry"/>
                </mxCell>
                <mxCell id="lNs4vDDPZcrE2mScRQ-m-10" value="&lt;font style=&quot;font-size: 10px;&quot;&gt;TestDrive&lt;/font&gt;" style="shape=umlLifeline;perimeter=lifelinePerimeter;whiteSpace=wrap;html=1;container=1;collapsible=0;recursiveResize=0;outlineConnect=0;" parent="1" vertex="1">
                    <mxGeometry x="515" y="70" width="167" height="450" as="geometry"/>
                </mxCell>
                <mxCell id="lNs4vDDPZcrE2mScRQ-m-25" value="" style="html=1;points=[];perimeter=orthogonalPerimeter;" parent="lNs4vDDPZcrE2mScRQ-m-10" vertex="1">
                    <mxGeometry x="78.5" y="200" width="10" height="210" as="geometry"/>
                </mxCell>
                <mxCell id="lNs4vDDPZcrE2mScRQ-m-26" value="self call" style="edgeStyle=orthogonalEdgeStyle;html=1;align=left;spacingLeft=2;endArrow=block;rounded=0;entryX=1;entryY=0;" parent="lNs4vDDPZcrE2mScRQ-m-10" target="lNs4vDDPZcrE2mScRQ-m-25" edge="1">
                    <mxGeometry relative="1" as="geometry">
                        <mxPoint x="85" y="160" as="sourcePoint"/>
                        <Array as="points">
                            <mxPoint x="105" y="160"/>
                            <mxPoint x="105" y="200"/>
                        </Array>
                    </mxGeometry>
                </mxCell>
                <mxCell id="lNs4vDDPZcrE2mScRQ-m-27" value="Time Update:" style="text;html=1;strokeColor=none;fillColor=none;align=center;verticalAlign=middle;whiteSpace=wrap;rounded=0;" parent="lNs4vDDPZcrE2mScRQ-m-10" vertex="1">
                    <mxGeometry x="75.5" y="280" width="105" height="30" as="geometry"/>
                </mxCell>
                <mxCell id="lNs4vDDPZcrE2mScRQ-m-14" value="" style="html=1;verticalAlign=bottom;endArrow=block;rounded=0;fontSize=12;entryX=0.041;entryY=0.036;entryDx=0;entryDy=0;entryPerimeter=0;" parent="1" target="lNs4vDDPZcrE2mScRQ-m-4" edge="1">
                    <mxGeometry width="80" relative="1" as="geometry">
                        <mxPoint x="180" y="230" as="sourcePoint"/>
                        <mxPoint x="320" y="230" as="targetPoint"/>
                    </mxGeometry>
                </mxCell>
                <mxCell id="lNs4vDDPZcrE2mScRQ-m-15" value="set_move_value" style="html=1;verticalAlign=bottom;endArrow=block;rounded=0;fontSize=12;exitX=1.007;exitY=0.04;exitDx=0;exitDy=0;exitPerimeter=0;" parent="1" source="lNs4vDDPZcrE2mScRQ-m-4" target="lNs4vDDPZcrE2mScRQ-m-10" edge="1">
                    <mxGeometry relative="1" as="geometry">
                        <mxPoint x="390" y="229" as="sourcePoint"/>
                        <mxPoint x="576.4000000000003" y="229.29599999999982" as="targetPoint"/>
                    </mxGeometry>
                </mxCell>
                <mxCell id="lNs4vDDPZcrE2mScRQ-m-16" value="" style="html=1;verticalAlign=bottom;endArrow=open;dashed=1;endSize=8;rounded=0;fontSize=12;" parent="1" edge="1">
                    <mxGeometry relative="1" as="geometry">
                        <mxPoint x="380" y="270" as="targetPoint"/>
                        <mxPoint x="598" y="269.8399999999999" as="sourcePoint"/>
                    </mxGeometry>
                </mxCell>
                <mxCell id="lNs4vDDPZcrE2mScRQ-m-17" value="&lt;div style=&quot;border-color: var(--border-color); font-family: Consolas, &amp;quot;Courier New&amp;quot;, monospace; line-height: 22px;&quot;&gt;move(linear, angular)&lt;/div&gt;" style="text;html=1;strokeColor=none;fillColor=none;align=center;verticalAlign=middle;whiteSpace=wrap;rounded=0;fontSize=12;" parent="1" vertex="1">
                    <mxGeometry x="415" y="249" width="150" height="20" as="geometry"/>
                </mxCell>
                <mxCell id="lNs4vDDPZcrE2mScRQ-m-21" value="" style="endArrow=classic;html=1;rounded=0;fontSize=12;" parent="1" edge="1">
                    <mxGeometry width="50" height="50" relative="1" as="geometry">
                        <mxPoint x="40" y="90" as="sourcePoint"/>
                        <mxPoint x="120" y="90" as="targetPoint"/>
                    </mxGeometry>
                </mxCell>
                <mxCell id="lNs4vDDPZcrE2mScRQ-m-28" value="" style="endArrow=classic;html=1;rounded=0;exitX=-0.061;exitY=0.995;exitDx=0;exitDy=0;exitPerimeter=0;" parent="1" source="lNs4vDDPZcrE2mScRQ-m-25" target="lNs4vDDPZcrE2mScRQ-m-3" edge="1">
                    <mxGeometry width="50" height="50" relative="1" as="geometry">
                        <mxPoint x="450" y="340" as="sourcePoint"/>
                        <mxPoint x="500" y="290" as="targetPoint"/>
                    </mxGeometry>
                </mxCell>
                <mxCell id="lNs4vDDPZcrE2mScRQ-m-29" value="move(0.0, 0.0)" style="text;html=1;strokeColor=none;fillColor=none;align=center;verticalAlign=middle;whiteSpace=wrap;rounded=0;" parent="1" vertex="1">
                    <mxGeometry x="430" y="450" width="105" height="30" as="geometry"/>
                </mxCell>
            </root>
        </mxGraphModel>
    </diagram>
</mxfile>